<svg width="2583" height="904" viewBox="0 0 2583 904" fill="none" xmlns="http://www.w3.org/2000/svg"><path d="M2076.64 898.304C2001.94 906.888 1919.58 904.023 1839.57 890.059L534.047 662.218C311.949 623.457 160.373 510.031 190.958 405.48L250.942 200.433C271.194 131.204 368.583 79.4865 506.629 64.6529L1060.69 5.11746C1162.98 -5.87472 1277.79 4.51051 1380.08 34.0095L2323.14 305.964C2496.21 355.873 2601.04 450.576 2580.02 538.029L2532.67 735.029C2515.73 805.507 2419.57 858.896 2280.86 874.836L2076.64 898.304Z" fill="url(#paint0_linear)"/><path d="M295.383 126.58C354.698 105.282 428.86 94.1796 508.851 94.6215L1813.99 101.832C2036.02 103.059 2249.33 191.236 2296.8 301.419L2389.92 517.513C2421.36 590.471 2372.8 658.937 2262.44 697.265L1819.52 851.094C1737.74 879.496 1629.83 888.553 1519.29 876.292L500.248 763.26C313.233 742.516 154.163 665.206 110.452 573.816L11.9889 367.948C-23.2366 294.299 23.0525 224.362 133.202 184.812L295.383 126.58Z" fill="url(#paint1_linear)"/><defs><linearGradient id="paint0_linear" x1="1083.65" y1="825.314" x2="1658.83" y2="48.4857" gradientUnits="userSpaceOnUse"><stop stop-color="#C3EDDF" stop-opacity="0.62"/><stop offset="1" stop-color="#2DC08D" stop-opacity="0.11"/></linearGradient><linearGradient id="paint1_linear" x1="1083.65" y1="825.314" x2="1658.83" y2="48.4857" gradientUnits="userSpaceOnUse"><stop stop-color="#C3EDDF" stop-opacity="0.62"/><stop offset="1" stop-color="#2DC08D" stop-opacity="0.11"/></linearGradient></defs></svg>