<svg width="100" height="100" viewBox="0 0 60 60" fill="none" xmlns="http://www.w3.org/2000/svg">
<mask id="mask0" mask-type="alpha" maskUnits="userSpaceOnUse" x="0" y="0" width="60" height="60">
<rect width="100" height="100" fill="#C4C4C4"/>
</mask>
<g mask="url(#mask0)">
<path d="M17.2784 13.4898V6.1724C17.2784 5.52556 16.7528 5 16.106 5C15.4592 5 14.9336 5.52556 14.9336 6.1724V13.4898C14.9336 14.1366 15.4592 14.6622 16.106 14.6622C16.7528 14.6622 17.2784 14.1366 17.2784 13.4898Z" fill="#8C7CDB"/>
<path d="M36.5401 13.4898V6.1724C36.5401 5.52556 36.0145 5 35.3677 5C34.7209 5 34.1953 5.52556 34.1953 6.1724V13.4898C34.1953 14.1366 34.7209 14.6622 35.3677 14.6622C36.0145 14.6622 36.5401 14.1366 36.5401 13.4898Z" fill="#8C7CDB"/>
<path d="M11.0938 26.2115C11.0938 26.8583 11.6193 27.3839 12.2661 27.3839H16.5919C17.2387 27.3839 17.7643 26.8583 17.7643 26.2115C17.7643 25.5646 17.2387 25.0391 16.5919 25.0391H12.2661C11.6193 25.0391 11.0938 25.5646 11.0938 26.2115Z" fill="#8C7CDB"/>
<path d="M16.5919 39.9545H12.2661C11.6193 39.9545 11.0938 40.48 11.0938 41.1269C11.0938 41.7737 11.6193 42.2993 12.2661 42.2993H16.5919C17.2387 42.2993 17.7643 41.7737 17.7643 41.1269C17.7643 40.48 17.2387 39.9545 16.5919 39.9545Z" fill="#8C7CDB"/>
<path d="M16.5919 32.4967H12.2661C11.6193 32.4967 11.0938 33.0223 11.0938 33.6691C11.0938 34.3159 11.6193 34.8415 12.2661 34.8415H16.5919C17.2387 34.8415 17.7643 34.3159 17.7643 33.6691C17.7643 33.0223 17.2387 32.4967 16.5919 32.4967Z" fill="#8C7CDB"/>
<path d="M27.9214 25.0391H23.5552C22.9084 25.0391 22.3828 25.5646 22.3828 26.2115C22.3828 26.8583 22.9084 27.3839 23.5552 27.3839H27.881C28.5278 27.3839 29.0534 26.8583 29.0534 26.2115C29.0534 25.5646 28.5682 25.0391 27.9214 25.0391Z" fill="#8C7CDB"/>
<path d="M27.9214 32.4967H23.5552C22.9084 32.4967 22.3828 33.0223 22.3828 33.6691C22.3828 34.3159 22.9084 34.8415 23.5552 34.8415H27.881C28.5278 34.8415 29.0534 34.3159 29.0534 33.6691C29.0534 33.0223 28.5682 32.4967 27.9214 32.4967Z" fill="#8C7CDB"/>
<path d="M33.7109 26.2115C33.7109 26.8583 34.2365 27.3839 34.8833 27.3839H39.2091C39.8559 27.3839 40.3815 26.8583 40.3815 26.2115C40.3815 25.5646 39.8559 25.0391 39.2091 25.0391H34.8833C34.2365 25.0391 33.7109 25.5646 33.7109 26.2115Z" fill="#8C7CDB"/>
<path d="M33.7904 48.776H7.4066C6.27463 48.776 5.3448 47.8462 5.3448 46.7142V12.9345C5.3448 11.8025 6.27463 10.8727 7.4066 10.8727H9.50883C10.1557 10.8727 10.6812 10.3471 10.6812 9.70029C10.6812 9.05345 10.1557 8.52789 9.50883 8.52789H7.4066C4.98095 8.52789 3 10.5088 3 12.9345V46.7142C3 49.1399 4.98095 51.1208 7.4066 51.1208H33.8713C33.7904 50.6357 33.75 50.1101 33.75 49.5846C33.75 49.3016 33.75 49.0186 33.7904 48.776Z" fill="#8C7CDB"/>
<path d="M48.4742 32.1138V12.9344C48.4742 10.5088 46.4933 8.52783 44.0676 8.52783H41.9654C41.3185 8.52783 40.793 9.05339 40.793 9.70023C40.793 10.3471 41.3185 10.8726 41.9654 10.8726H44.0676C45.1996 10.8726 46.1294 11.8025 46.1294 12.9344V32.1138C46.5337 32.0734 46.8975 32.033 47.3018 32.033C47.7061 32.033 48.0699 32.033 48.4742 32.1138Z" fill="#8C7CDB"/>
<path d="M42.9441 9.70023C42.9441 9.05339 42.4185 8.52783 41.7717 8.52783H8.70755C8.06071 8.52783 7.53516 9.05339 7.53516 9.70023C7.53516 10.3471 8.06071 10.8726 8.70755 10.8726H41.7312C42.4185 10.8726 42.9441 10.3471 42.9441 9.70023Z" fill="#8C7CDB"/>
<path d="M46.6758 19C46.6758 18.4483 46.0376 18 45.252 18H5.09952C4.31401 18 3.67578 18.4483 3.67578 19C3.67578 19.5517 4.31401 20 5.09952 20H45.2029C46.0376 20 46.6758 19.5517 46.6758 19Z" fill="#8C7CDB"/>
<path d="M43.3005 29.3778C38.7727 29.3778 29.0938 39.0567 29.0938 43.5846C29.0938 48.1125 38.7727 56.7914 43.3005 56.7914C47.8284 56.7914 57.5073 48.1125 57.5073 43.5846C57.5073 39.0567 47.8284 29.3778 43.3005 29.3778ZM43.3005 54.4466C40.0663 54.4466 31.4385 46.8188 31.4385 43.5846C31.4385 40.3504 40.0663 31.7226 43.3005 31.7226C46.5347 31.7226 55.1625 40.3504 55.1625 43.5846C55.1625 46.8188 46.5347 54.4466 43.3005 54.4466Z" fill="#8C7CDB"/>
<path d="M47.1436 40.3388L41.4754 46.007L38.6668 43.1984C38.2221 42.7537 37.454 42.7537 37.0093 43.1984C36.5646 43.6431 36.5646 44.4112 37.0093 44.8559L40.6264 48.473C40.869 48.7156 41.152 48.7965 41.4754 48.7965C41.7988 48.7965 42.0818 48.6752 42.3244 48.473L48.8416 41.9559C49.2863 41.5112 49.2863 40.743 48.8416 40.2983C48.316 39.8941 47.5883 39.8941 47.1436 40.3388Z" fill="#8C7CDB"/>
</g>
</svg>
