<?xml version="1.0" encoding="utf-8"?>
<!-- Generator: Adobe Illustrator 24.3.0, SVG Export Plug-In . SVG Version: 6.00 Build 0)  -->
<svg version="1.1" id="Слой_1" xmlns="http://www.w3.org/2000/svg" xmlns:xlink="http://www.w3.org/1999/xlink" x="0px" y="0px"
	 viewBox="0 0 570 389" style="enable-background:new 0 0 570 389;" xml:space="preserve">
<style type="text/css">
	.st0{fill:#E6E2D9;}
	.st1{opacity:0.7;}
	.st2{opacity:0.7;fill:#FCFAFA;enable-background:new    ;}
	.st3{fill:url(#SVGID_1_);}
	.st4{fill:url(#SVGID_2_);}
	.st5{fill:url(#SVGID_3_);}
	.st6{fill:url(#SVGID_4_);}
	.st7{fill:url(#SVGID_5_);}
	.st8{fill:url(#SVGID_6_);}
	.st9{fill:url(#SVGID_7_);}
	.st10{fill:url(#SVGID_8_);}
	.st11{fill:url(#SVGID_9_);}
	.st12{fill:url(#SVGID_10_);}
	.st13{fill:#353535;}
	.st14{fill:#424142;}
	.st15{fill:#FCF9F4;}
	.st16{opacity:0.2;}
	.st17{opacity:0.2;fill:#353535;enable-background:new    ;}
	.st18{fill:#00E19B;}
	.st19{fill:#2590E8;}
	.st20{fill:#FFFFFF;}
	.st21{fill:#0C70CF;}
	.st22{fill:#2D2D2D;}
	.st23{fill:#1E1E1E;}
	.st24{fill:#FAB57A;}
	.st25{fill:#F9BD95;}
	.st26{fill:#F49E6E;}
	.st27{fill:#5D5E5C;}
	.st28{fill:#F78D3E;}
	.st29{opacity:0.4;fill:#A3DE83;enable-background:new    ;}
	.st30{fill:#96D1C7;}
	.st31{opacity:0.2;fill:#FFFFFF;enable-background:new    ;}
	.st32{fill:#FFC97C;}
	.st33{fill:#F9AB4E;}
	.st34{opacity:0.5;}
	.st35{opacity:0.5;fill:#FCF9F4;enable-background:new    ;}
	.st36{fill:#161616;}
	.st37{fill:#312B30;}
	.st38{fill:#7EC1B4;}
	.st39{fill:#191619;}
	.st40{fill:#DB543A;}
	.st41{fill:#FFA897;}
	.st42{fill:#BBEAE1;}
	.st43{opacity:0.2;fill:#B17179;enable-background:new    ;}
	.st44{fill:#2EB872;}
	.st45{fill:#A3DE83;}
	.st46{fill:#C3F2A7;}
	.st47{fill:url(#SVGID_11_);filter:url(#Adobe_OpacityMaskFilter);}
	.st48{mask:url(#mask0_1_);}
	.st49{fill:url(#SVGID_12_);}
	.st50{opacity:0.8;fill:#2EB872;enable-background:new    ;}
	.st51{fill:#6D6C6D;}
	.st52{fill:#B17179;}
	.st53{fill:#914955;}
	.st54{fill:url(#SVGID_13_);}
	.st55{fill:url(#SVGID_14_);}
	.st56{fill:#333333;}
	.st57{opacity:0.15;fill:#FFFEF4;enable-background:new    ;}
	.st58{fill:#686867;}
	.st59{fill:#AEAFAF;}
	.st60{fill:#7B7C7C;}
	.st61{fill:#F7AA9C;}
	.st62{fill:#E0A0AA;}
	.st63{fill:#F2B061;}
</style>
<g>
	<g>
		<path class="st0" d="M177,339.7c29.5,0,53.4-23.9,53.4-53.4c0-29.5-23.9-53.4-53.4-53.4s-53.4,23.9-53.4,53.4
			C123.5,315.8,147.5,339.7,177,339.7z"/>
		<path class="st0" d="M250.8,91.2c16.7,0,30.2-13.5,30.2-30.1S267.4,31,250.8,31s-30.2,13.5-30.2,30.1S234.1,91.2,250.8,91.2z"/>
		<path class="st0" d="M540.7,180.5c18-82-16.5-152.3-65.2-168.1c-29.5-9.6-76.8-3.3-101.3,27.5c-13.5,16.9-15.7,35.8-16,39.1
			c-4.5,43.4,33.2,58,29.3,90.6c-4.3,36.3-53.2,37.4-61.3,76.4c-6.5,31,16.2,70.3,45.7,82.4c51,21,127.8-36.8,148.8-93.4
			C527.2,216.8,533.9,198.7,540.7,180.5z"/>
		<g class="st1">
			<path class="st2" d="M410,14.8h71.7c3.8,1.6,7.5,3.6,11.1,5.9h-95.7C401.2,18.4,405.6,16.4,410,14.8z"/>
			<path class="st2" d="M505.1,30.4H383.3c2.1-1.9,4.4-3.6,6.7-5.2h109.1C501.1,26.8,503.2,28.5,505.1,30.4z"/>
			<path class="st2" d="M514.5,40.3H373.7c0.1-0.1,0.2-0.3,0.3-0.4c1.3-1.7,2.7-3.3,4.2-4.8H510C511.5,36.8,513,38.5,514.5,40.3z"/>
			<path class="st2" d="M521.6,50H367.4c0.8-1.5,1.7-3,2.7-4.4h148.5C519.6,47,520.6,48.4,521.6,50z"/>
			<path class="st2" d="M527.3,59.6H362.9c0.5-1.2,1-2.4,1.5-3.7h160.8C526,57.1,526.6,58.3,527.3,59.6z"/>
			<path class="st2" d="M532.2,69.6H359.8c0.3-1.2,0.6-2.4,1-3.7h169.7C531.1,67.1,531.6,68.3,532.2,69.6z"/>
			<path class="st2" d="M536,79.2H358c0-0.1,0-0.1,0-0.2c0.1-0.5,0.2-1.5,0.4-2.8h176.5C535.3,77.2,535.6,78.2,536,79.2z"/>
			<path class="st2" d="M539.1,89.2H357.8c0-1-0.1-2-0.1-3h180.6C538.6,87.2,538.9,88.2,539.1,89.2z"/>
			<path class="st2" d="M541.5,98.8H359c-0.2-0.7-0.3-1.5-0.4-2.2H541C541.2,97.3,541.4,98.1,541.5,98.8z"/>
			<path class="st2" d="M543.4,108.8H362c-0.3-0.7-0.6-1.5-0.8-2.2H543C543.1,107.3,543.3,108.1,543.4,108.8z"/>
			<path class="st2" d="M544.6,118.4H366.5c-0.3-0.5-0.5-1-0.8-1.5h178.7C544.5,117.4,544.6,117.9,544.6,118.4z"/>
			<path class="st2" d="M545.3,128.4H372.5c-0.3-0.5-0.6-1-0.9-1.5h173.7C545.3,127.4,545.3,127.9,545.3,128.4z"/>
			<path class="st2" d="M545.5,138H378.6c-0.1-0.2-0.3-0.5-0.5-0.7h167.3C545.5,137.6,545.5,137.8,545.5,138z"/>
			<path class="st2" d="M545.2,148H383.9c-0.1-0.2-0.2-0.5-0.3-0.7h161.6C545.2,147.5,545.2,147.8,545.2,148z"/>
		</g>
		
			<linearGradient id="SVGID_1_" gradientUnits="userSpaceOnUse" x1="73.6066" y1="224.0093" x2="90.8219" y2="150.1493" gradientTransform="matrix(1 0 0 -1 0 390)">
			<stop  offset="0" style="stop-color:#BCC731"/>
			<stop  offset="0.2365" style="stop-color:#9FA831"/>
			<stop  offset="0.5645" style="stop-color:#7C8431"/>
			<stop  offset="0.8308" style="stop-color:#676D31"/>
			<stop  offset="1" style="stop-color:#5F6531"/>
		</linearGradient>
		<path class="st3" d="M58.8,205.2c39.2,20,79.2,6.5,90.1,2.4L0,131.4C2.4,142,16.1,183.5,58.8,205.2z M39.8,174.6
			c-4.4,5.6-15.8-3.5-22.2-14c-3.7-6.1-6.6-11.8-0.3-10.6C23.6,151,44.3,169,39.8,174.6z"/>
		
			<linearGradient id="SVGID_2_" gradientUnits="userSpaceOnUse" x1="97.3643" y1="264.5958" x2="71.8549" y2="215.5128" gradientTransform="matrix(1 0 0 -1 0 390)">
			<stop  offset="0" style="stop-color:#BCC731"/>
			<stop  offset="1" style="stop-color:#5F6531"/>
		</linearGradient>
		<path class="st4" d="M0,131.4l148.9,76.2c-4.1-13.8-16.3-47.5-48.8-68.7C59.3,112.2,12.3,127.9,0,131.4z M82.7,148.3
			c0.2,2.7-1.7,2.8-13.4-0.5c-2.3-0.6-3.5-4.4,0.9-4.8C74.6,142.6,82.5,145.5,82.7,148.3z"/>
		
			<linearGradient id="SVGID_3_" gradientUnits="userSpaceOnUse" x1="483.2176" y1="273.0722" x2="443.4126" y2="261.2952" gradientTransform="matrix(1 0 0 -1 0 390)">
			<stop  offset="0" style="stop-color:#BCC731"/>
			<stop  offset="0.2365" style="stop-color:#9FA831"/>
			<stop  offset="0.5645" style="stop-color:#7C8431"/>
			<stop  offset="0.8308" style="stop-color:#676D31"/>
			<stop  offset="1" style="stop-color:#5F6531"/>
		</linearGradient>
		<path class="st5" d="M461.3,110.1c-9.7,22-1,43.4,1.6,49.2l36.9-83.6C494.1,77.3,471.8,86.1,461.3,110.1z M477.5,98.8
			c-3.2-2.2,1.4-8.7,6.9-12.6c3.2-2.2,6.2-4,5.8-0.5C489.8,89.2,480.7,101,477.5,98.8z"/>
		
			<linearGradient id="SVGID_4_" gradientUnits="userSpaceOnUse" x1="506.1374" y1="261.3629" x2="478.5194" y2="273.7609" gradientTransform="matrix(1 0 0 -1 0 390)">
			<stop  offset="0" style="stop-color:#BCC731"/>
			<stop  offset="1" style="stop-color:#5F6531"/>
		</linearGradient>
		<path class="st6" d="M499.8,75.7l-36.9,83.6c7.4-2.7,25.4-10.4,36-28.8C512.1,107.4,502.1,82.3,499.8,75.7z M493.2,121.3
			c-1.5,0.2-1.6-0.8-0.1-7.3c0.3-1.3,2.3-2.1,2.6,0.3C496.1,116.7,494.7,121.1,493.2,121.3z"/>
		
			<linearGradient id="SVGID_5_" gradientUnits="userSpaceOnUse" x1="497.1059" y1="185.7539" x2="503.7529" y2="226.6929" gradientTransform="matrix(1 0 0 -1 0 390)">
			<stop  offset="0" style="stop-color:#BCC731"/>
			<stop  offset="0.2365" style="stop-color:#9FA831"/>
			<stop  offset="0.5645" style="stop-color:#7C8431"/>
			<stop  offset="0.8308" style="stop-color:#676D31"/>
			<stop  offset="1" style="stop-color:#5F6531"/>
		</linearGradient>
		<path class="st7" d="M512.8,187.5c-15.7-18.3-38.7-19.7-45.1-19.9l59.4,69.5C528.1,231.2,529.8,207.3,512.8,187.5z M516,206.9
			c3.4-1.9,7.3,5,8.3,11.7c0.6,3.8,0.9,7.3-2.1,5.4C519.3,222.2,512.6,208.8,516,206.9z"/>
		
			<linearGradient id="SVGID_6_" gradientUnits="userSpaceOnUse" x1="476.6378" y1="170.1639" x2="499.7589" y2="189.6869" gradientTransform="matrix(1 0 0 -1 0 390)">
			<stop  offset="0" style="stop-color:#BCC731"/>
			<stop  offset="1" style="stop-color:#5F6531"/>
		</linearGradient>
		<path class="st8" d="M527.1,237l-59.4-69.5c-0.8,7.8-1.6,27.4,10.4,44.9C493.1,234.4,520.2,236.3,527.1,237z M488.8,211.3
			c0.5-1.4,1.4-1,6.6,3.1c1,0.8,0.9,3-1.4,2.2C491.7,215.9,488.3,212.7,488.8,211.3z"/>
		
			<linearGradient id="SVGID_7_" gradientUnits="userSpaceOnUse" x1="504.7233" y1="232.8" x2="469.2493" y2="282.3701" gradientTransform="matrix(1 0 0 -1 0 390)">
			<stop  offset="0" style="stop-color:#BCC731"/>
			<stop  offset="0.2365" style="stop-color:#9FA831"/>
			<stop  offset="0.5645" style="stop-color:#7C8431"/>
			<stop  offset="0.8308" style="stop-color:#676D31"/>
			<stop  offset="1" style="stop-color:#5F6531"/>
		</linearGradient>
		<path class="st9" d="M503.7,123.5c-35.3-2.8-60.8,19.5-67.6,25.9l134,10.9C565,153.1,542,126.5,503.7,123.5z M527.2,140.5
			c1.6-5.5,12.8-2.3,20.8,3.6c4.6,3.4,8.5,6.7,3.5,7.8C546.5,152.9,525.6,146,527.2,140.5z"/>
		
			<linearGradient id="SVGID_8_" gradientUnits="userSpaceOnUse" x1="499.5426" y1="195.3794" x2="503.4146" y2="239.6454" gradientTransform="matrix(1 0 0 -1 0 390)">
			<stop  offset="0" style="stop-color:#BCC731"/>
			<stop  offset="1" style="stop-color:#5F6531"/>
		</linearGradient>
		<path class="st10" d="M570,160.3l-134-10.9c7.3,9,26.7,30.2,57.3,36C531.9,192.7,562,166.7,570,160.3z M503.4,173.2
			c-1-2,0.4-2.6,10.1-3.7c1.9-0.2,4,2.2,0.8,3.8C511.2,174.9,504.4,175.1,503.4,173.2z"/>
		
			<linearGradient id="SVGID_9_" gradientUnits="userSpaceOnUse" x1="85.8026" y1="146.8579" x2="146.5031" y2="140.5029" gradientTransform="matrix(1 0 0 -1 0 390)">
			<stop  offset="0" style="stop-color:#BCC731"/>
			<stop  offset="0.2365" style="stop-color:#9FA831"/>
			<stop  offset="0.5645" style="stop-color:#7C8431"/>
			<stop  offset="0.8308" style="stop-color:#676D31"/>
			<stop  offset="1" style="stop-color:#5F6531"/>
		</linearGradient>
		<path class="st11" d="M111.7,264.7c25.5-24.5,25.8-58.4,25.5-67.8l-97.1,92.9C48.8,290.9,84,291.4,111.7,264.7z M83.4,271
			c3.1,4.8-6.8,11.1-16.5,13.2c-5.6,1.2-10.7,1.9-8.2-2.6C61.3,277.2,80.4,266.2,83.4,271z"/>
		
			<linearGradient id="SVGID_10_" gradientUnits="userSpaceOnUse" x1="61.2463" y1="175.6174" x2="91.7947" y2="143.2914" gradientTransform="matrix(1 0 0 -1 0 390)">
			<stop  offset="0" style="stop-color:#BCC731"/>
			<stop  offset="1" style="stop-color:#5F6531"/>
		</linearGradient>
		<path class="st12" d="M40.2,289.9l97.1-92.9c-11.6-0.5-40.4-0.1-65.1,18.9C41.2,239.8,40.7,279.6,40.2,289.9z M74.7,231.6
			c2.1,0.6,1.7,2-3.9,10c-1.1,1.6-4.3,1.5-3.4-1.9C68.2,236.2,72.6,231,74.7,231.6z"/>
		<path class="st13" d="M338.3,281.7H259v63.7h79.3V281.7z"/>
		<path class="st14" d="M478.7,49.3h-362v250.5h362V49.3z"/>
		<path class="st15" d="M477.4,60H118v229.1h359.5V60z"/>
		<path class="st14" d="M365.4,354H231.8c-4.1,0-7.5-3.3-7.5-7.5v-6.1c0-4.1,3.3-7.5,7.5-7.5h133.6c4.1,0,7.5,3.3,7.5,7.5v6.1
			C372.9,350.7,369.5,354,365.4,354z"/>
		<g class="st16">
			<path class="st17" d="M270,227.6H127.9v4.8H270V227.6z"/>
			<path class="st17" d="M270,236H127.9v4.8H270V236z"/>
		</g>
		<g class="st16">
			<path class="st17" d="M270,248.5H127.9v4.8H270V248.5z"/>
			<path class="st17" d="M270,256.8H127.9v4.8H270V256.8z"/>
		</g>
		<g class="st16">
			<path class="st17" d="M270,269.3H127.9v4.8H270V269.3z"/>
			<path class="st17" d="M270,277.7H127.9v4.8H270V277.7z"/>
		</g>
		<path class="st18" d="M118,73.7h359.8v-14H118V73.7z"/>
		<path class="st19" d="M438.3,69c1.8,0,3.3-1.4,3.3-3.1c0-1.7-1.5-3.1-3.3-3.1c-1.8,0-3.3,1.4-3.3,3.1C435,67.6,436.5,69,438.3,69z
			"/>
		<path class="st19" d="M451.9,69c1.8,0,3.3-1.4,3.3-3.1c0-1.7-1.5-3.1-3.3-3.1c-1.8,0-3.3,1.4-3.3,3.1
			C448.6,67.6,450.1,69,451.9,69z"/>
		<path class="st19" d="M465.6,69c1.8,0,3.3-1.4,3.3-3.1c0-1.7-1.5-3.1-3.3-3.1c-1.8,0-3.3,1.4-3.3,3.1
			C462.3,67.6,463.8,69,465.6,69z"/>
		<path class="st20" d="M422.1,69.1H124.3c-1.5,0-2.7-1.2-2.7-2.7v-0.3c0-1.5,1.2-2.7,2.7-2.7h297.8c1.5,0,2.7,1.2,2.7,2.7v0.3
			C424.8,67.9,423.6,69.1,422.1,69.1z"/>
		<path class="st19" d="M229.6,177.6c22-21.9,22-57.5,0-79.4c-22-21.9-57.5-21.9-79.5,0c-22,21.9-22,57.5,0,79.4
			C172.1,199.5,207.7,199.5,229.6,177.6z"/>
		<path class="st21" d="M170.3,85.2c-0.7,0.3-1.4,0.5-2.1,0.8c-0.8,4.9-2.7,9.5-7.2,13.8c-5.7,5.4-11.7,6.7-18,7.1
			c-0.4,0.7-0.9,1.4-1.3,2.1c7-0.3,14.1-1.4,20.7-7.7C167.7,96.3,169.6,90.8,170.3,85.2z"/>
		<path class="st21" d="M211.6,189.3c-0.2,0.2-0.4,0.4-0.6,0.6c4.5-1.8,8.7-4.2,12.6-7.1C219.5,183.8,215.5,185.6,211.6,189.3z"/>
		<path class="st21" d="M172.5,109c8.1-7.7,8.4-16.5,8.6-25c0-0.5,0-1.1,0.1-1.6c-0.9,0.1-1.8,0.3-2.7,0.5c0,0.3,0,0.7,0,1
			c-0.3,8.3-0.5,16.2-7.8,23.2c-7.1,6.7-14.6,6.9-22.6,7.2c-3.2,0.1-6.4,0.2-9.6,0.7c-0.4,1-0.8,1.9-1.2,2.9c3.5-0.8,7.1-0.9,10.9-1
			C156.3,116.6,164.7,116.3,172.5,109z"/>
		<path class="st21" d="M136.4,131.6c6.7-6.5,14-6.7,21.8-6.9c8.2-0.2,16.6-0.5,24.5-8c8.2-7.8,8.5-16.6,8.8-25.2
			c0.1-3.3,0.2-6.5,0.8-9.7c-0.8,0-1.6,0-2.3,0c-0.3,0-0.7,0-1,0c-0.5,3.2-0.6,6.4-0.7,9.6c-0.3,8.3-0.5,16.1-7.7,22.9
			c-7,6.6-14.5,6.8-22.4,7.1c-8,0.2-16.2,0.5-23.7,7.6c-0.3,1.9-0.5,3.7-0.6,5.6C134.5,133.5,135.4,132.5,136.4,131.6z"/>
		<path class="st21" d="M146.6,139.2c6.6-6.4,13.9-6.6,21.6-6.8c8.2-0.2,16.8-0.5,24.8-8.1c3.7-3.5,6.2-7.6,7.5-12.6
			c1.1-4.3,1.3-8.7,1.4-12.9c0.2-5.4,0.3-10.6,2.5-15.3c-1.3-0.3-2.6-0.6-4-0.9c-2.1,5.2-2.3,10.7-2.5,16.1
			c-0.3,8.2-0.5,16-7.6,22.7c-6.9,6.5-14.3,6.7-22.1,7c-8.1,0.2-16.5,0.5-24.2,8c-3.7,3.6-6.2,7.9-7.6,13c-0.3,1-0.5,2-0.6,3
			c0.8,3,1.8,5.9,3.1,8.7C139.1,153.2,139.9,145.7,146.6,139.2z"/>
		<path class="st21" d="M156.7,146.9c6.5-6.3,13.7-6.5,21.4-6.7c4-0.1,8.2-0.2,12.4-1.3c4.8-1.2,8.9-3.4,12.6-6.9
			c3.8-3.6,6.3-7.7,7.6-12.7c1.1-4.3,1.3-8.7,1.4-13c0.2-6.5,0.4-12.7,4.1-18.2c-1.4-0.7-2.8-1.4-4.2-2c-4,6.4-4.3,13.3-4.5,20
			c-0.3,8.1-0.5,15.8-7.5,22.5c-6.8,6.4-14.1,6.7-21.9,6.9c-8.2,0.2-16.7,0.5-24.4,8c-8.4,8.1-8.9,18-9.3,26.7c0,0.1,0,0.2,0,0.4
			c1.3,1.9,2.8,3.6,4.3,5.3c0.2-1.8,0.2-3.6,0.3-5.4C149.3,161.9,149.6,153.8,156.7,146.9z"/>
		<path class="st21" d="M166.9,154.6c6.4-6.2,13.6-6.4,21.1-6.6c4.1-0.1,8.3-0.3,12.5-1.3c4.9-1.2,9-3.5,12.7-7
			c3.8-3.6,6.3-7.8,7.7-12.9c1.1-4.3,1.3-8.8,1.4-13c0.2-6.6,0.4-12.9,4.3-18.5c-1.3-1.2-2.7-2.2-4.2-3.3c-1.9,2.6-3.2,5.5-4.1,8.7
			c-1.1,4.3-1.2,8.6-1.4,12.8c-0.2,8.1-0.5,15.7-7.4,22.2c-6.7,6.3-14,6.6-21.7,6.8c-4,0.1-8.2,0.2-12.3,1.3
			c-4.8,1.2-8.8,3.4-12.4,6.9c-8.5,8.2-8.9,18.1-9.4,26.9c0,1.1-0.1,2.1-0.2,3.1c1.6,1.3,3.3,2.6,5,3.8c0.2-2.2,0.3-4.4,0.4-6.6
			C159.5,169.4,159.9,161.4,166.9,154.6z"/>
		<path class="st21" d="M176.6,161.8c6.5-6.3,13.7-6.5,21.4-6.7c4-0.1,8.2-0.2,12.4-1.3c4.8-1.2,8.9-3.4,12.6-6.9
			c3.8-3.6,6.3-7.7,7.6-12.7c1.1-4.3,1.3-8.7,1.4-13c0.2-5.9,0.4-11.6,3.2-16.8c-1-1.3-2-2.6-3.1-3.8c-4.3,6.5-4.5,13.6-4.7,20.4
			c-0.3,8.1-0.5,15.8-7.5,22.5c-6.8,6.4-14.1,6.7-21.9,6.9c-8.2,0.2-16.7,0.5-24.4,8c-8.4,8.1-8.9,18-9.3,26.7
			c0,0.9-0.1,1.7-0.1,2.6c1.5,0.8,3,1.5,4.5,2.1c0.1-1.5,0.2-3,0.2-4.4C169.1,176.8,169.5,168.7,176.6,161.8z"/>
		<path class="st21" d="M186.3,169c6.6-6.4,13.9-6.6,21.6-6.8c8.2-0.2,16.8-0.5,24.8-8.1c3.7-3.5,6.2-7.6,7.5-12.6
			c1.1-4.3,1.3-8.6,1.4-12.9c0.1-3.7,0.2-7.3,1-10.7c-0.7-1.9-1.5-3.7-2.5-5.5c-2.1,5.2-2.3,10.7-2.5,16.1c-0.3,8.2-0.5,16-7.6,22.7
			c-6.9,6.5-14.3,6.7-22.1,7c-8.1,0.2-16.5,0.5-24.2,8c-3.7,3.6-6.2,7.9-7.6,13c-1.1,4.2-1.4,8.5-1.6,12.6c1.3,0.4,2.6,0.7,3.9,1
			c0,0,0,0,0,0C178.8,184.2,179.1,176,186.3,169z"/>
		<path class="st21" d="M196,176.2c6.7-6.5,14-6.7,21.8-6.9c7.4-0.2,15-0.5,22.2-6c1.4-2.7,2.5-5.4,3.4-8.3c-0.9,1.3-2,2.6-3.3,3.9
			c-7,6.6-14.5,6.8-22.4,7.1c-8.1,0.2-16.4,0.5-24,7.9c-3.7,3.6-6.1,7.8-7.5,12.9c-0.6,2.3-1,4.7-1.2,7.1c1.1,0.1,2.2,0.2,3.3,0.2
			C189,187.7,190.6,181.5,196,176.2z"/>
		<path class="st21" d="M205.7,183.5c6.8-6.6,14.2-6.8,22-7c1,0,2.1-0.1,3.1-0.1c0.9-0.9,1.7-1.8,2.5-2.8c-1.9,0.1-3.7,0.2-5.6,0.3
			c-8,0.2-16.3,0.5-23.8,7.8c-3.5,3.4-5.8,7.3-7.2,12.1c1-0.1,1.9-0.3,2.9-0.4C200.8,189.8,202.6,186.5,205.7,183.5z"/>
		<path class="st22" d="M166.1,138.1c-9.1-11.2-11.1-22.4-6.8-27c0.8-0.9,2.8-2.5,7.4-2.6c-2.1-2.6-2.4-6.2-0.8-8.8
			c2-3.2,6.7-4.4,10.5-2.3c0.4-1.2,1.8-5.1,5.7-7.4c2.5-1.4,4.9-1.5,6.3-1.6c5.6-0.2,9.8,2.5,11.5,3.6c11.3,7.3,13.1,22.4,13.2,24
			c1,9.7-2.2,17.4-4.1,21L182,150.3L166.1,138.1z"/>
		<path class="st23" d="M166.1,138.1c-1.2-1.6-2.4-3.2-3.5-4.9c0.4-0.4,0.9-1.1,1.3-2c0.4-1,0.5-1.8,0.5-2.1
			c0.1-1.7,0.7-5.5,1.4-10.8c9.5,0.8,19,1.5,28.4,2.3l6.6-3.7c5.4,2.6,9.3,6.6,11.6,10.9c-0.9,4-2.3,7.2-3.4,9.2l-25.3,12.5
			c-0.7,0.1-1.4,0.3-2.1,0.4L166.1,138.1z"/>
		<path class="st24" d="M228.1,174.8c-7.4-6.5-18.1-5.9-24.2-5c-6.4,1.3-12.7,2.6-19.1,3.8c-2.7,0.1-6.4,0.4-10.9,1.2
			c-3.7,0.6-5.8,1-7.9,1.9c-1.8,0.7-5.2,2.5-8.5,7c9.2,6.5,20.4,10.3,32.5,10.3c15.8,0,30.1-6.5,40.3-17
			C229,175.7,228.1,174.8,228.1,174.8z"/>
		<path class="st25" d="M184,154.8c-0.1,8.1-0.6,15.8-1.2,23.1c2.5,0.3,5.9,0.4,9.8-0.2c5.5-0.9,9.7-2.8,12.3-4.4
			c-1.5-2.6-3-5.7-4.3-9.4c-1.7-4.8-2.6-9.2-3-12.7c-0.2-2.7-0.4-5.3-0.7-8c-4.4-2.2-8.7-4.5-13.1-6.7
			C184,142.4,184.1,148.5,184,154.8z"/>
		<path class="st26" d="M197.9,154c0.2,1,0.4,2,0.6,3c-1,1.8-2.8,4.4-5.8,6.6c-1.7,1.2-4.6,3.3-8.4,3.2c-0.3,0-0.6,0-0.8-0.1
			c0.2-3.8,0.3-7.8,0.4-11.8c0,0,0-0.1,0-0.1l9.4-3.8L197.9,154z"/>
		<path class="st25" d="M165.6,117.3c-0.1,2.8-0.3,6.9-0.2,11.8c0.2,15.9,0.3,23.8,4.5,28c6.4,6.5,19.2,6.4,25,2.2
			c3.9-2.8,6.6-4.6,10.1-11.6c0,0,6.8-1.5,7.2-9.4c0.4-7.9-8.3-6.3-8.3-6.3s0.4-10.9-4.2-16.2c-3.9,1.3-9.2,2.6-15.5,3.1
			C176.5,119.4,170.1,118.4,165.6,117.3z"/>
		<path class="st27" d="M193.3,90c-0.4-0.1-0.8-0.2-1.3-0.3c-0.4-0.1-0.9-0.2-1.3-0.2c-0.1,0-0.2,0-0.3,0l-0.3,0c-0.2,0-0.4,0-0.7,0
			c-0.1,0-0.2,0-0.3,0l-0.3,0l-0.3,0c-0.1,0-0.2,0-0.3,0c-0.4,0-0.9,0.1-1.3,0.2l-0.7,0.2c-0.2,0.1-0.4,0.1-0.6,0.2
			c-0.1,0-0.2,0.1-0.3,0.1l-0.3,0.1c-0.2,0.1-0.4,0.2-0.6,0.3l-0.6,0.3l-0.1,0l0,0l0,0l0,0l-0.1,0.1l-0.3,0.2l-0.3,0.2
			c-0.1,0.1-0.2,0.1-0.3,0.2l-0.6,0.4c-0.2,0.1-0.4,0.3-0.5,0.4c-0.2,0.2-0.4,0.3-0.5,0.5l-0.5,0.5c-0.2,0.2-0.3,0.3-0.5,0.5
			l-0.2,0.3l-0.2,0.3c-0.1,0.2-0.3,0.4-0.4,0.6l-0.4,0.6l-0.3,0.6c-0.2,0.4-0.4,0.8-0.6,1.2c-0.2,0.4-0.3,0.8-0.5,1.3
			c-0.1,0.4-0.3,0.9-0.4,1.3l1.3-0.4l-0.5-0.5c-0.2-0.1-0.4-0.3-0.6-0.4c-0.2-0.1-0.4-0.2-0.6-0.4c-0.2-0.1-0.4-0.2-0.6-0.3
			c-0.2-0.1-0.4-0.2-0.6-0.2c-0.1,0-0.2-0.1-0.3-0.1l-0.3-0.1c-0.1,0-0.2-0.1-0.3-0.1l-0.3-0.1c-0.1,0-0.2,0-0.3,0l-0.3,0
			c-0.5,0-0.9,0-1.4,0.1c-0.5,0.1-0.9,0.2-1.3,0.3c-0.4,0.2-0.8,0.4-1.2,0.6c-0.4,0.2-0.8,0.5-1.1,0.8l-0.1,0.1l0,0l0,0l0,0l0,0
			l-0.1,0.1l-0.2,0.2c-0.1,0.1-0.3,0.4-0.4,0.5c-0.3,0.4-0.5,0.8-0.7,1.2c-0.2,0.4-0.3,0.8-0.4,1.3c-0.1,0.2-0.1,0.4-0.1,0.7
			c0,0.2,0,0.4,0,0.7c0,0.2,0,0.4,0,0.7c0,0.2,0.1,0.4,0.1,0.6c0,0.2,0.1,0.4,0.1,0.6c0.1,0.2,0.1,0.4,0.2,0.6
			c0.1,0.2,0.2,0.4,0.3,0.6c0.1,0.2,0.2,0.4,0.3,0.5l0.4,0.5c0.1,0.2,0.3,0.3,0.4,0.5l-0.3-0.5l-0.3-0.6l-0.2-0.6l-0.2-0.6l-0.1-0.6
			l-0.1-0.6c0-0.2,0-0.4,0-0.6c0-0.2,0-0.4,0.1-0.6c0-0.2,0.1-0.4,0.1-0.6c0.1-0.2,0.1-0.4,0.2-0.6c0.1-0.4,0.3-0.7,0.5-1.1
			c0.1-0.2,0.2-0.3,0.3-0.5c0.1-0.2,0.2-0.3,0.3-0.5c0.1-0.1,0.2-0.3,0.4-0.4l0.2-0.2l0.1-0.1l0,0c0,0,0,0,0,0l0,0l0,0l0,0l0.1-0.1
			c0.3-0.2,0.6-0.4,0.9-0.6c0.3-0.2,0.7-0.3,1-0.4c0.4-0.1,0.7-0.2,1.1-0.2c0.4,0,0.7-0.1,1.1,0c0.4,0,0.7,0.1,1.1,0.2l0.3,0.1
			c0.1,0,0.2,0,0.3,0.1c0.2,0.1,0.3,0.1,0.5,0.2c0.2,0.1,0.3,0.2,0.5,0.3c0.2,0.1,0.3,0.2,0.5,0.3c0.1,0.1,0.3,0.2,0.4,0.3l0.4,0.4
			l1,1l0.3-1.3c0.1-0.4,0.2-0.8,0.3-1.2c0.1-0.4,0.3-0.8,0.4-1.2c0.2-0.4,0.3-0.8,0.5-1.1l0.3-0.5l0.3-0.5c0.1-0.2,0.2-0.3,0.3-0.5
			l0.2-0.3l0.2-0.2c0.1-0.2,0.2-0.3,0.4-0.5l0.4-0.5c0.1-0.2,0.3-0.3,0.4-0.4c0.1-0.1,0.3-0.3,0.5-0.4l0.5-0.4
			c0.1-0.1,0.2-0.1,0.3-0.2l0.3-0.2l0.3-0.2l0.1-0.1l0,0l0,0c0,0,0,0,0,0l0,0l0,0l0.1,0l0.5-0.3c0.2-0.1,0.4-0.2,0.6-0.3l0.3-0.1
			c0.1,0,0.2-0.1,0.3-0.1c0.2-0.1,0.4-0.2,0.6-0.2l0.6-0.2c0.4-0.1,0.8-0.2,1.2-0.3c0.1,0,0.2-0.1,0.3-0.1l0.3-0.1l0.3-0.1
			c0.1,0,0.2,0,0.3,0c0.2,0,0.4-0.1,0.6-0.1c0.2,0,0.4,0,0.6,0c0.4,0,0.9,0,1.3,0C192.5,89.9,192.9,90,193.3,90z"/>
		<path class="st28" d="M192.6,177.7c5.5-0.9,9.7-2.8,12.3-4.4c-1-1.8-2.1-3.9-3.1-6.2c-5.6,2.6-15.3,4.1-18.5,4.6
			c-0.1,2.1-0.3,4.2-0.5,6.2C185.3,178.2,188.7,178.3,192.6,177.7z"/>
		<path class="st29" d="M452.4,202.8H274.5c-5.3,0-9.6-4.3-9.6-9.6V92.9c0-5.3,4.3-9.6,9.6-9.6h177.9c5.3,0,9.6,4.3,9.6,9.6v100.3
			C462,198.5,457.7,202.8,452.4,202.8z"/>
		<path class="st19" d="M432.9,92.8H283.1v32.4h8.4l-2.8,5.9l14.6-5.9h129.5V92.8z"/>
		<path class="st20" d="M424.9,100.4H290.7v1.4h134.3V100.4z"/>
		<path class="st20" d="M424.9,105.7H290.7v1.4h134.3V105.7z"/>
		<path class="st20" d="M424.9,110.9H290.7v1.4h134.3V110.9z"/>
		<path class="st20" d="M424.9,116.2H290.7v1.4h134.3V116.2z"/>
		<path class="st19" d="M390.1,156.2h-107v32.4h8.4l-2.8,5.9l14.6-5.9h86.7V156.2z"/>
		<path class="st20" d="M382.2,163.8h-91.5v1.4h91.5V163.8z"/>
		<path class="st20" d="M382.2,169.1h-91.5v1.4h91.5V169.1z"/>
		<path class="st20" d="M382.2,174.4h-91.5v1.4h91.5V174.4z"/>
		<path class="st20" d="M382.2,179.6h-91.5v1.4h91.5V179.6z"/>
		<path class="st30" d="M220.1,198.1h-59.1v6.3h59.1V198.1z"/>
		<path class="st30" d="M244.7,208.4H133.5V220h111.1V208.4z"/>
		<path class="st19" d="M468.6,220.1H278.8v60.3h189.8V220.1z"/>
		<g class="st16">
			<path class="st31" d="M282.6,220.1h-1.7v60.3h1.7V220.1z"/>
			<path class="st31" d="M286.2,220.1h-1.5v60.3h1.5V220.1z"/>
			<path class="st31" d="M289.9,220.1h-1.5v60.3h1.5V220.1z"/>
			<path class="st31" d="M293.5,220.1h-1.3v60.3h1.3V220.1z"/>
			<path class="st31" d="M297.1,220.1h-1.1v60.3h1.1V220.1z"/>
			<path class="st31" d="M300.9,220.1h-1.1v60.3h1.1V220.1z"/>
			<path class="st31" d="M304.5,220.1h-0.9v60.3h0.9V220.1z"/>
			<path class="st31" d="M308.2,220.1h-0.9v60.3h0.9V220.1z"/>
			<path class="st31" d="M311.8,220.1h-0.6v60.3h0.6V220.1z"/>
			<path class="st31" d="M315.5,220.1h-0.6v60.3h0.6V220.1z"/>
			<path class="st31" d="M319.1,220.1h-0.4v60.3h0.4V220.1z"/>
			<path class="st31" d="M322.9,220.1h-0.4v60.3h0.4V220.1z"/>
			<path class="st31" d="M326.5,220.1h-0.2v60.3h0.2V220.1z"/>
			<path class="st31" d="M330.2,220.1H330v60.3h0.2V220.1z"/>
		</g>
		<path class="st14" d="M297.7,261.3l-0.5,1.4l13.8,0l-0.5-1.4L297.7,261.3z"/>
		<path class="st32" d="M294.1,230.2c2.7-0.5,6-0.9,9.7-1c4,0,7.5,0.4,10.3,1c0,1.2,0,2.7-0.2,4.6c-0.3,2.2-0.7,5.5-2.7,9
			c-0.8,1.4-2.2,3.5-4.7,5.5c-1.6,0-3.2,0-4.7,0c-2.2-1.7-3.5-3.5-4.3-4.8c-2.2-3.4-2.7-6.6-3.1-8.5
			C294,233.6,294,231.6,294.1,230.2z"/>
		<path class="st33" d="M306.6,249.2c-0.8,0-1.6,0-2.4,0v0c-0.8,0-1.6,0-2.4,0c0,0-0.1,0.1-0.1,0.3c0,0.2,0.2,0.2,0.2,0.2
			c0.2,0.2,0.5,0.4,0.8,0.8c0.1,0.2,0.2,0.4,0.3,0.5c0,0.3,0,0.6,0,0.8c-0.1,0.1-0.2,0.4-0.2,0.5c-0.1,0.1-0.2,0.5-0.3,0.6h1.7v0
			h1.6c-0.1-0.1-0.2-0.5-0.3-0.6c-0.1-0.1-0.2-0.4-0.2-0.5c0-0.3,0-0.6,0-0.8c0.1-0.2,0.2-0.3,0.3-0.5c0.3-0.4,0.6-0.7,0.8-0.8
			c0,0,0.2-0.1,0.2-0.2C306.7,249.4,306.6,249.3,306.6,249.2z"/>
		<path class="st32" d="M305.6,253.9l-2.9,0c-0.2,0-0.4-0.2-0.4-0.4s0.2-0.4,0.4-0.4l2.9,0c0.2,0,0.4,0.2,0.4,0.4
			C306,253.7,305.8,253.9,305.6,253.9z"/>
		<path class="st33" d="M302.5,253.9c0,1.4,0.1,2.8,0.1,4.2c-0.1,0.2-0.2,0.5-0.3,0.9c-0.1,0.4-0.2,0.7-0.2,1c1.4,0,2.7,0,4.1,0
			c0-0.2-0.1-0.5-0.1-0.9c-0.1-0.4-0.3-0.8-0.4-1c0-1.4,0.1-2.8,0.1-4.2H302.5z"/>
		<path class="st32" d="M308.4,260.8c-0.5-0.2-0.9-0.3-1.3-0.4c0-0.1-0.1-0.2-0.3-0.3c-0.2-0.1-0.4-0.1-0.5-0.1l-2.1,0l-2.1,0
			c-0.1,0-0.3,0-0.5,0.1c-0.2,0.1-0.3,0.3-0.3,0.3c-0.4,0.1-0.8,0.2-1.3,0.4c-0.4,0.2-0.8,0.3-1.1,0.5v0.9c1.7,0.1,3.6,0.2,5.6,0.2
			c1.8,0,3.5-0.1,5.1-0.2c0-0.3,0-0.6,0-0.9C309.2,261.1,308.8,260.9,308.4,260.8z"/>
		<path class="st13" d="M311.1,262.7h-13.8v8.3h13.8V262.7z"/>
		<path class="st32" d="M309,266.7c0,1.2-2.2,2.2-4.8,2.2c-2.7,0-4.8-1-4.8-2.2s2.2-2.2,4.8-2.2C306.9,264.5,309,265.5,309,266.7z"
			/>
		<path class="st20" d="M300.7,266.7c0,0.3-0.2,0.5-0.5,0.5c-0.3,0-0.5-0.2-0.5-0.5c0-0.3,0.2-0.5,0.5-0.5
			C300.5,266.3,300.7,266.5,300.7,266.7z"/>
		<path class="st20" d="M308.7,266.7c0,0.3-0.2,0.5-0.5,0.5c-0.3,0-0.5-0.2-0.5-0.5c0-0.3,0.2-0.5,0.5-0.5
			C308.5,266.2,308.7,266.5,308.7,266.7z"/>
		<path class="st14" d="M311.9,270.6h-15.4v1.6h15.4V270.6z"/>
		<path class="st33" d="M293,235.1l0.5,0.3c0,0,0.5-1,0.7-1.5l-0.1-2.1c-0.1-0.2-0.5-1.2-1.5-1.7c-1.3-0.6-2.5,0-2.8,0.1
			c-1.1,0.6-1.5,1.6-1.6,1.9c-0.7,1.6,0,3.2,0.2,3.9c0.1,0.3,0.2,0.5,0.3,0.6c1.1,2.2,3.4,4.4,5.5,6.2c0.5,0.5,1.4,1.2,3,2.8
			c1.1,1,1.9,1.8,1.8,2.8c0,0.1-0.1,0.7-0.5,0.9c-0.5,0.3-1.1,0-1.4-0.1c-0.1,0-0.2,0-0.2,0.1c-0.1,0.1,0,0.2,0,0.3
			c0,0,1,0.7,1.8,0.3c0.5-0.3,0.7-0.8,0.7-0.9c0.6-1.9-2-4-2-4c-0.3-0.3-1.1-1-2.1-2c-2.8-2.7-4.4-4.1-5.5-6.1
			c-0.2-0.3-0.8-1.5-0.8-3.1c0-0.3,0-0.7,0.2-1c0.1-0.2,0.5-1.4,1.6-1.6c0.9-0.2,1.7,0.3,2.2,0.9C293.6,233.1,293.6,234.2,293,235.1
			z"/>
		<path class="st33" d="M315.2,235.1l-0.5,0.3c0,0-0.5-1-0.7-1.5l0.1-2.1c0.1-0.2,0.5-1.2,1.5-1.7c1.3-0.6,2.5,0,2.8,0.1
			c1.1,0.6,1.5,1.6,1.6,1.9c0.7,1.6,0,3.2-0.2,3.9c-0.1,0.3-0.2,0.5-0.3,0.6c-1.1,2.2-3.4,4.4-5.5,6.2c-0.5,0.5-1.4,1.2-3,2.8
			c-1.1,1-1.9,1.8-1.8,2.8c0,0.1,0.1,0.7,0.5,0.9c0.5,0.3,1.1,0,1.4,0c0.1,0,0.2,0,0.2,0.1c0.1,0.1,0,0.2-0.1,0.3c0,0-1,0.7-1.8,0.3
			c-0.5-0.3-0.7-0.8-0.7-0.9c-0.6-1.9,2-4,2-4c0.3-0.3,1.1-1,2.1-2c2.8-2.7,4.3-4.1,5.5-6.1c0.2-0.3,0.8-1.5,0.8-3.1
			c0-0.3,0-0.7-0.2-1c-0.1-0.2-0.5-1.4-1.6-1.6c-0.9-0.2-1.7,0.3-2.2,0.9C314.6,233.1,314.6,234.2,315.2,235.1z"/>
		<g class="st34">
			<path class="st35" d="M456.6,228.2H331.5v4h125.1V228.2z"/>
			<path class="st35" d="M456.6,235.1H331.5v4h125.1V235.1z"/>
		</g>
		<g class="st34">
			<path class="st35" d="M456.6,245.4H331.5v4h125.1V245.4z"/>
			<path class="st35" d="M456.6,252.3H331.5v4h125.1V252.3z"/>
		</g>
		<g class="st34">
			<path class="st35" d="M456.6,262.6H331.5v4h125.1V262.6z"/>
			<path class="st35" d="M456.6,269.5H331.5v4h125.1V269.5z"/>
		</g>
		<path class="st36" d="M484.1,140.9h-2.6V367h2.6V140.9z"/>
		<path class="st36" d="M434.2,140.9h-2.6V367h2.6V140.9z"/>
		<path class="st36" d="M482.7,166h-50.3v2.6h50.3V166z"/>
		<path class="st36" d="M482.7,195.2h-50.3v2.6h50.3V195.2z"/>
		<path class="st36" d="M482.7,224.3h-50.3v2.6h50.3V224.3z"/>
		<path class="st36" d="M482.7,253.4h-50.3v2.6h50.3V253.4z"/>
		<path class="st36" d="M482.7,282.5h-50.3v2.6h50.3V282.5z"/>
		<path class="st36" d="M482.7,311.7h-50.3v2.6h50.3V311.7z"/>
		<path class="st36" d="M482.7,340.8h-50.3v2.6h50.3V340.8z"/>
		<path class="st25" d="M473.3,295.9c1.1,3.4,2.2,6.7,3.3,10.1c1.1-0.5,2.3-1.1,3.4-1.6c-0.7-3.2-1.4-6.4-2.1-9.7
			C476.4,295.1,474.9,295.5,473.3,295.9z"/>
		<path class="st37" d="M479.4,301.1l-3.1,4.4c-0.6,1.7-1.1,3.4-1.7,5.1c-0.7,0-1.3,0.1-1.7,0.2c-0.7,0.2-1.4,0.3-1.5,0.8
			c-0.1,0.2,0,0.5,0.1,0.7c0.3,0.4,1,0.3,1.4,0.3c1-0.1,2.5-0.2,4.4-0.3c0.4,0,0.8-0.3,1-0.6c1.1-2.1,2.1-3.7,2.9-4.8
			c1.2-1.6,2.1-2.4,1.9-3.4C482.9,302.1,480.8,301.4,479.4,301.1z"/>
		<path class="st30" d="M463.1,217.9c0.9,6.2,1.6,12.7,2.2,19.4c0.8,8.4,1.3,16.5,1.6,24.2c4.3,12.5,8.7,25,13,37.5
			c-2.1,0.9-4.1,1.8-6.2,2.6c-2.4-2.7-5.8-6.8-9.6-12c-5-7-10.2-14.3-13.9-24.6c-1.8-5-2.8-10.4-4.8-21.4
			c-1.5-8.5-2.5-15.6-3.2-20.6C442.3,223,442.3,223,463.1,217.9z"/>
		<path class="st38" d="M449.6,226.2l14.6,0.7c0.1,0.8,0.2,1.6,0.3,2.4c-2.8,2.2-5.9,4.5-9.3,6.7c-2,1.4-4,2.6-6,3.8
			c-0.2,11,2.1,19.2,4.1,24.4c2.3,6.1,6.2,12.2,13.8,24.2c3.3,5.3,6.2,9.6,8.2,12.5c-0.5,0.2-1.1,0.5-1.6,0.7
			c-2.4-2.7-5.8-6.8-9.6-12c-5-7-10.2-14.3-13.9-24.6c-1.8-5-2.8-10.4-4.8-21.4c-1-5.7-1.8-10.9-2.4-15.1L449.6,226.2z"/>
		<path class="st25" d="M450.6,166.5c0.2,1.1,0.4,2.8,0,4.8c-0.2,1.1-0.5,2-0.9,2.7c0.8,0.1,1.9,0.1,3.2-0.1c1.8-0.3,3.1-0.9,4-1.4
			c-0.2-1-0.5-2.1-0.9-3.3c-0.5-1.5-1-2.8-1.5-3.9c-0.1-0.9-0.1-1.7-0.2-2.6c-1.4-0.7-2.8-1.5-4.3-2.2
			C450.3,162.5,450.5,164.5,450.6,166.5z"/>
		<path class="st19" d="M447.7,152.3c-0.2,0-1.5-0.4-2.1-1.6c-0.7-1.4,0.1-2.7,0.2-3c0.7-1.2,1.9-1.7,2.8-2c2.6-0.9,4.9-0.3,5.5-0.1
			c5,1.5,6.6,7.3,6.8,7.8c0.5,0,2.2,0.3,3.1,1.6c0.8,1.2,0.5,2.5,0.3,3.3c-1,5-8,10.1-9.5,11.2C452.4,163.8,450,158,447.7,152.3z"/>
		<path class="st39" d="M453.6,180c-1.2-0.6-2.4-1.3-3.6-1.9c-5.1,0.4-11.1,0.7-17.8,0.9c-7.3,0.2-9.4,0-11-0.2
			c-4.3-0.6-10.3-2.1-17.2-6.5c-0.9,1.7-1.8,3.5-2.7,5.2c3.4,3.4,9.2,8.1,17.4,11.4c13.8,5.5,26.2,3.6,31.3,2.5
			C451.2,187.6,452.4,183.8,453.6,180z"/>
		<path class="st20" d="M447.4,172.3c0.8,0.1,1.6,0.3,2.4,0.4c0.7,0.2,1.9,0.4,3.3,0.3c1.6-0.2,2.8-0.7,3.4-1.1
			c0.6-0.1,2.1-0.4,3.6,0.3c0.4,0.2,1.4,0.7,2.3,1.9c2.5,3.4,2.2,8.6,2.2,8.6c0.4,4.3,0.8,8.7,1.1,13.2c0.6,7.9,1.2,15.6,1.6,23.2
			c-2.5,1.3-6.7,2.9-12.1,3.4c-6.9,0.5-12.3-1.2-15.1-2.4c0.8-9,1.9-18.5,3.6-28.5C444.8,184.8,446.1,178.4,447.4,172.3z"/>
		<path class="st25" d="M437.3,272c2.1,2.7,4.2,5.5,6.3,8.2c1.3-0.1,2.6-0.1,3.9-0.2c-0.4-0.9-0.8-1.9-1.2-2.9
			c-1.1-2.3-2.2-4.3-3.4-6C441.1,271.4,439.2,271.7,437.3,272z"/>
		<path class="st37" d="M447.5,279.5l-4.1-0.1c0,0-11.1,1.1-11,2.8c0.1,1.7,14.2,0.9,15.2,0.4C448.6,282.1,447.5,279.5,447.5,279.5z
			"/>
		<path class="st30" d="M407.1,232.9c1.7-8.6,13.5-13.2,20.6-16c4.8-1.9,8.9-2.8,11.5-3.3c0.9-2.9,1.8-5.7,2.7-8.6
			c3.1,0.4,6.7,0.7,10.7,0.6c3.8-0.1,7.2-0.5,10.1-1c1.3,1.5,4.4,5.8,4.6,11.9c0,2,0.1,5.9-2.4,9.1c-4.3,5.6-12.5,4.6-13.1,4.5
			c-4.8,1.3-9.7,2.7-14.8,4.2c-4.3,1.3-8.5,2.7-12.6,4.1c2.6,3.5,4.8,6.6,6.5,9.1c2.8,3.9,3.8,5.3,5.1,7.4c1.6,2.5,2.8,4.7,3.9,6.6
			c1.9,3.4,4,7.8,6.1,12.9c-2.1,0.9-4.1,1.8-6.2,2.7c-7.2-5.7-24.5-20.2-31.3-35.7C407.4,238.9,406.5,236.1,407.1,232.9z"/>
		<path class="st40" d="M460.6,164.5c-2.3,2.5-5,4.4-5.8,5c-0.7-1.8-1.4-3.5-2.2-5.3l1.7-4.2c0,0,4.4-4.1,5.2,1
			C459.7,162.7,460,163.8,460.6,164.5z"/>
		<path class="st41" d="M454.5,146.7c0,0,0,0-0.1-0.1c-0.1,0-0.2-0.1-0.3-0.1c-0.1,0-0.2-0.1-0.2-0.1c-0.1,0-0.2-0.1-0.3-0.1
			c-0.2-0.1-0.4-0.1-0.7-0.2c-0.3-0.1-0.5-0.1-0.8-0.2c-0.3,0-0.6-0.1-1-0.1c-0.3,0-0.7,0-1,0c-0.4,0-0.7,0.1-1.1,0.2
			c-0.4,0.1-0.7,0.2-1,0.4c-0.3,0.2-0.6,0.4-0.9,0.6c-0.3,0.2-0.5,0.5-0.6,0.8c-0.2,0.3-0.3,0.6-0.3,0.9c-0.1,0.3-0.1,0.5,0,0.7
			c0,0.2,0,0.4,0.1,0.6c0,0.2,0.1,0.3,0.1,0.3c0,0.1,0,0.1,0,0.1s0,0,0-0.1c0-0.1,0-0.2,0-0.4c0-0.2,0-0.3,0-0.5
			c0-0.2,0.1-0.4,0.2-0.7c0.1-0.2,0.2-0.5,0.4-0.7s0.4-0.4,0.6-0.6c0.2-0.2,0.5-0.3,0.8-0.5c0.3-0.1,0.6-0.3,0.9-0.3
			c0.3-0.1,0.6-0.2,1-0.2c0.3-0.1,0.7-0.1,1-0.1c0.6,0,1.2,0,1.7,0c0.3,0,0.5,0,0.7,0.1c0.2,0,0.4,0,0.5,0.1
			C454.4,146.7,454.5,146.7,454.5,146.7z"/>
		<path class="st41" d="M463.9,157.1C463.9,157.1,463.9,157.1,463.9,157.1c0-0.1,0-0.2,0.1-0.2c0-0.1,0-0.4,0-0.6
			c0-0.3-0.1-0.6-0.2-0.9c-0.1-0.1-0.2-0.3-0.3-0.4c-0.1-0.1-0.1-0.1-0.2-0.2c-0.1-0.1-0.1-0.1-0.2-0.2l-0.2-0.2l0,0l0,0l0,0l0,0
			l-0.1,0c0,0-0.1,0-0.1-0.1c-0.2-0.1-0.3-0.1-0.5-0.2c-0.2,0-0.3-0.1-0.5-0.1c-0.2,0-0.3,0-0.4,0c-0.1,0-0.2,0.1-0.3,0.1
			c-0.1,0-0.2,0.1-0.2,0.1c-0.1,0-0.1,0.1-0.1,0.1c0,0-0.1,0-0.1,0s0.1,0,0.2,0c0.1,0,0.2,0,0.2,0c0.1,0,0.2,0,0.3,0
			c0.1,0,0.2,0,0.4,0.1c0.1,0,0.1,0,0.2,0.1c0.1,0,0.1,0,0.2,0.1c0.1,0,0.1,0.1,0.2,0.1c0.1,0,0.1,0.1,0.2,0.1
			c0.1,0,0.1,0.1,0.2,0.1l0.2,0.1c0.1,0.1,0.2,0.2,0.3,0.3c0.1,0.1,0.2,0.2,0.3,0.3c0.2,0.2,0.3,0.4,0.4,0.7
			c0.1,0.2,0.2,0.4,0.2,0.5C463.8,157,463.9,157.1,463.9,157.1z"/>
		<path class="st25" d="M447.7,152.3c-4.7,5.5-5.6,11.4-3.5,13.7c0.7,0.8,2.4,1.7,4.3,1.9c0.1,0,0.1,0,0.2,0
			c1.9,0.1,3.6-0.8,4.5-2.5l0.8-1.7c0.5,0.3,0.9,0.3,1.1,0.3c1.3-0.2,2.2-2.7,1.5-3.7c-0.2-0.3-0.6-0.5-1-0.6
			c-0.5,0-1.2,0.3-1.2,0.3c0.9-2.4,0.6-3.6,0.1-4.2c-0.6-0.8-1.3-1.3-3-2C449.9,153.2,448.6,152.7,447.7,152.3z"/>
		<path class="st37" d="M451.1,172.9c0.6,0.1,1.2,0.1,2,0c1.6-0.1,2.8-0.7,3.4-1c0.6-0.1,2.1-0.4,3.6,0.2c0.4,0.2,1.4,0.6,2.3,1.8
			c2.5,3.2,2.2,8.1,2.2,8.1c0.6,4.9,1.1,9.8,1.5,14.9c1,11.4,1.7,22.3,2,32.9c-3.1,0.5-6.6,0.9-10.3,1.1c-5.6,0.3-10.7,0.2-15.1-0.2
			C445.6,211.5,448.3,192.2,451.1,172.9z"/>
		<path class="st39" d="M450.6,177l13.4,1c-3.2,5.9-5.2,9.2-15.1,11C449.4,185,450,181,450.6,177z"/>
		<path class="st33" d="M449.1,178.9c-0.9,7-2.1,14.3-3.6,21.8c-0.5,2.6-1.1,5.2-1.6,7.8c-1.6,0.6-3.2,1.2-4.8,1.8
			c-0.5-1.5-1.1-2.9-1.6-4.4c1.6-5.3,3.3-10.6,4.9-16c1.2-3.9,2.3-7.8,3.4-11.7C446.9,178.3,448,178.6,449.1,178.9z"/>
		<path class="st42" d="M415.6,224.4c0,0-0.1,0-0.2,0.1c-0.1,0.1-0.3,0.2-0.6,0.3c-0.2,0.1-0.5,0.3-0.9,0.6
			c-0.3,0.2-0.7,0.5-1.1,0.8c-0.2,0.2-0.4,0.3-0.6,0.5c-0.1,0.1-0.2,0.2-0.3,0.3c-0.1,0.1-0.2,0.2-0.3,0.3c-0.4,0.4-0.8,0.9-1.1,1.4
			c-0.1,0.1-0.2,0.3-0.3,0.4c0,0.1-0.1,0.1-0.1,0.2c0,0.1-0.1,0.1-0.1,0.2c-0.1,0.1-0.2,0.3-0.2,0.4c-0.1,0.1-0.1,0.3-0.2,0.4
			l-0.1,0.2l-0.1,0.2c-0.1,0.2-0.1,0.3-0.2,0.5c-0.1,0.2-0.1,0.3-0.2,0.5c-0.1,0.2-0.1,0.3-0.1,0.5l-0.1,0.5c0,0.2-0.1,0.3-0.1,0.5
			c0,0.2-0.1,0.3-0.1,0.5c0,0.2,0,0.3,0,0.5c-0.1,0.7,0,1.3,0,1.9c0,0.2,0,0.3,0.1,0.5c0,0.2,0,0.3,0.1,0.4c0,0.1,0.1,0.3,0.1,0.4
			c0,0.1,0.1,0.3,0.1,0.4c0.1,0.3,0.1,0.5,0.2,0.8c0.1,0.3,0.2,0.5,0.2,0.7c0.1,0.2,0.2,0.4,0.3,0.7c0,0.1,0,0.1,0.1,0.2
			c0,0,0,0.1,0.1,0.1c0,0.1,0.1,0.2,0.1,0.3c0.1,0.2,0.2,0.3,0.2,0.5c0.1,0.2,0.2,0.3,0.2,0.4c0.1,0.2,0.3,0.4,0.3,0.6
			c0.1,0.1,0.1,0.2,0.1,0.2s0-0.1-0.1-0.2c-0.1-0.1-0.1-0.3-0.2-0.6c-0.1-0.3-0.2-0.6-0.4-1c0-0.1-0.1-0.2-0.1-0.3
			c0,0,0-0.1-0.1-0.1c0-0.1,0-0.1,0-0.2c-0.1-0.2-0.1-0.4-0.2-0.7c-0.1-0.2-0.1-0.5-0.2-0.7c-0.1-0.3-0.1-0.5-0.2-0.8
			c0-0.1,0-0.3-0.1-0.4c0-0.1,0-0.3-0.1-0.4c0-0.1,0-0.3,0-0.4c0-0.1,0-0.3,0-0.4c0-0.1,0-0.3,0-0.4c0-0.1,0-0.3,0-0.5
			c0-0.2,0-0.3,0-0.5c0-0.1,0-0.2,0-0.2l0-0.2c0-0.2,0-0.3,0.1-0.5c0-0.2,0.1-0.3,0.1-0.5c0-0.2,0.1-0.3,0.1-0.5l0.1-0.5
			c0-0.2,0.1-0.3,0.1-0.4c0-0.1,0.1-0.3,0.1-0.4c0.1-0.1,0.1-0.3,0.2-0.4l0.1-0.2l0.1-0.2c0.3-0.6,0.6-1.1,0.9-1.6
			c0.2-0.2,0.3-0.5,0.5-0.7c0.1-0.1,0.2-0.2,0.3-0.3c0.1-0.1,0.2-0.2,0.3-0.3c0.4-0.4,0.7-0.8,1-1.1c0.3-0.3,0.7-0.6,1-0.9
			c0.3-0.3,0.6-0.5,0.8-0.6c0.2-0.2,0.4-0.3,0.5-0.4C415.5,224.5,415.6,224.4,415.6,224.4z"/>
		<path class="st39" d="M451.1,223.3h10.2v-12h-10.2V223.3z"/>
		<path class="st32" d="M444.2,186c0,0-0.1,0.3-0.3,0.8c-0.2,0.5-0.4,1.2-0.7,2.1c-0.1,0.4-0.3,0.9-0.5,1.4c-0.2,0.5-0.3,1-0.5,1.6
			c-0.2,0.5-0.3,1.1-0.5,1.7c-0.2,0.6-0.3,1.2-0.5,1.7c-0.2,0.6-0.3,1.2-0.5,1.7c-0.2,0.6-0.3,1.1-0.5,1.7c-0.1,0.6-0.3,1.1-0.4,1.6
			c-0.1,0.5-0.2,1-0.3,1.4c-0.2,0.9-0.4,1.6-0.5,2.1c-0.1,0.5-0.2,0.8-0.2,0.8s0.1-0.3,0.3-0.8c0.2-0.5,0.4-1.2,0.7-2.1
			c0.1-0.4,0.3-0.9,0.5-1.4c0.2-0.5,0.3-1,0.5-1.6c0.2-0.5,0.3-1.1,0.5-1.7c0.2-0.6,0.3-1.2,0.5-1.7c0.2-0.6,0.3-1.2,0.5-1.7
			c0.2-0.6,0.3-1.1,0.5-1.7c0.1-0.5,0.3-1.1,0.4-1.6c0.1-0.5,0.2-1,0.3-1.4c0.2-0.9,0.4-1.6,0.5-2.1
			C444.1,186.3,444.2,186,444.2,186z"/>
		<path class="st15" d="M341.8,130l101.8,38.1l-11.4,30.3l-7.9-3l0.5,6.5l-11.6-10.7l-82.9-31L341.8,130z"/>
		<path class="st30" d="M346.6,140l-0.5,1.4l87.3,32.7l0.5-1.4L346.6,140z"/>
		<path class="st30" d="M344.7,144.9l-0.5,1.4l87.3,32.7l0.5-1.4L344.7,144.9z"/>
		<path class="st30" d="M342.9,149.8l-0.5,1.4l87.3,32.7l0.5-1.4L342.9,149.8z"/>
		<path class="st30" d="M341,154.8l-0.5,1.4l87.3,32.7l0.5-1.4L341,154.8z"/>
		<path class="st25" d="M416.9,172c-0.6-0.3-1.2-0.5-1.8-0.8c0-0.1-0.1-0.2-0.1-0.4c-0.3-0.8-0.7-1.3-1-1.6c-0.7-0.8-1.6-2-2.6-3.2
			c-0.1-0.1-0.2-0.2-0.4-0.3c0,0-0.2,0-0.3,0.1c-0.2,0.2,0.7,1.4,1.6,3.2c0.2,0.4,0.3,0.6,0.4,0.8c-6.4-4-8.3-4.8-8.6-4.5
			c-0.1,0.1-0.1,0.3-0.1,0.3c-0.1,0.5,0.8,1,1.1,1.2c1,0.6,0.9,0.5,2.8,1.9c-1-0.4-1.7-0.8-2.2-1.1c0,0-1.1-0.6-3-1.3
			c0,0-0.3-0.1-0.5,0c0,0-0.1,0.1-0.1,0.4c0,0.4,4.1,2.9,4.7,3.3c-4.1-1.9-5.3-2.1-5.5-1.9c0,0-0.1,0.2-0.1,0.4
			c0,0.1,0.1,0.4,0.5,0.7c0.5,0.3,1.3,0.6,4.5,2.3c-2.3-0.9-2.5-0.5-2.9-0.6c-0.5-0.1-0.6,0-0.7,0.1c0,0-0.1,0.1-0.1,0.2
			c-0.2,0.6,5.7,2.5,7.9,3.7c0.3,0.1,1,0.5,1.8,0.3c0.3-0.1,0.5-0.2,0.7-0.3c0.5,0.3,1,0.6,1.6,0.9
			C415.3,174.5,416.1,173.3,416.9,172z"/>
		<path class="st37" d="M459.5,171.8c0.4,0.2,2,0.9,2.7,2.5c0.8,1.9-0.1,3.8-0.5,4.5c-1.5,3.2-4.7,4.7-7.1,5.7
			c-3.5,1.5-9,3.4-16.4,4.7c-0.9,0.2-1.8,0-2.6-0.4c-7.7-4.2-15.3-8.4-23-12.5c1.4-1.8,2.7-3.6,4.1-5.4l19.9,8.3
			c4-1.7,7.2-3,9.2-3.9C453.4,172,456.6,170.5,459.5,171.8z"/>
		<path class="st30" d="M388.3,37c-10.2,0-18.5-8.3-18.5-18.5c0-10.2,8.3-18.5,18.5-18.5s18.5,8.3,18.5,18.5
			C406.9,28.7,398.6,37,388.3,37z M388.3,1.1c-9.6,0-17.5,7.8-17.5,17.4c0,9.6,7.8,17.4,17.5,17.4c9.6,0,17.5-7.8,17.5-17.4
			C405.8,8.9,398,1.1,388.3,1.1z"/>
		<path class="st30" d="M457.9,81.9c-10,0-19.5-3.9-26.6-11s-11-16.5-11-26.5s3.9-19.4,11-26.5s16.5-11,26.6-11
			c10,0,19.5,3.9,26.6,11c7.1,7.1,11,16.5,11,26.5s-3.9,19.4-11,26.5C477.4,78,467.9,81.9,457.9,81.9z M457.9,7.9
			c-20.1,0-36.5,16.4-36.5,36.5s16.4,36.5,36.5,36.5c20.1,0,36.5-16.4,36.5-36.5S478,7.9,457.9,7.9z"/>
		<g class="st16">
			<path class="st43" d="M196,61.9v-5.8h5.5v2.3C199.8,59.7,197.9,60.9,196,61.9z"/>
			<path class="st43" d="M180,56.2h-4.7v7.5h4.7V56.2z"/>
			<path class="st43" d="M158.5,56.2h-3.9v7.5h3.9V56.2z"/>
			<path class="st43" d="M137.1,56.2h-3.1v7.5h3.1V56.2z"/>
			<path class="st43" d="M190.6,56.2h-4.7v7.5h4.7V56.2z"/>
			<path class="st43" d="M169.1,56.2h-3.9v7.5h3.9V56.2z"/>
			<path class="st43" d="M147.6,56.2h-3.1v7.5h3.1V56.2z"/>
			<path class="st43" d="M114.6,56.2h-2.4v7.5h2.4V56.2z"/>
			<path class="st43" d="M125.2,56.2h-2.4v7.5h2.4V56.2z"/>
			<path class="st43" d="M93.1,56.2h-1.6v7.5h1.6V56.2z"/>
			<path class="st43" d="M103.7,56.2h-1.6v7.5h1.6V56.2z"/>
			<path class="st43" d="M71.2,56.2h-0.8v7.5h0.8V56.2z"/>
			<path class="st43" d="M81.7,56.2h-0.8v7.5h0.8V56.2z"/>
			<path class="st43" d="M201.5,43.2H196v7.5h5.5V43.2z"/>
			<path class="st43" d="M180,43.2h-4.7v7.5h4.7V43.2z"/>
			<path class="st43" d="M158.5,43.2h-3.9v7.5h3.9V43.2z"/>
			<path class="st43" d="M137.1,43.2h-3.1v7.5h3.1V43.2z"/>
			<path class="st43" d="M190.6,43.2h-4.7v7.5h4.7V43.2z"/>
			<path class="st43" d="M169.1,43.2h-3.9v7.5h3.9V43.2z"/>
			<path class="st43" d="M147.6,43.2h-3.1v7.5h3.1V43.2z"/>
			<path class="st43" d="M114.6,43.2h-2.4v7.5h2.4V43.2z"/>
			<path class="st43" d="M125.2,43.2h-2.4v7.5h2.4V43.2z"/>
			<path class="st43" d="M93.1,43.2h-1.6v7.5h1.6V43.2z"/>
			<path class="st43" d="M103.7,43.2h-1.6v7.5h1.6V43.2z"/>
			<path class="st43" d="M71.2,43.2h-0.8v7.5h0.8V43.2z"/>
			<path class="st43" d="M81.7,43.2h-0.8v7.5h0.8V43.2z"/>
			<path class="st43" d="M201.5,30.2H196v7.5h5.5V30.2z"/>
			<path class="st43" d="M180,30.2h-4.7v7.5h4.7V30.2z"/>
			<path class="st43" d="M158.5,30.2h-3.9v7.5h3.9V30.2z"/>
			<path class="st43" d="M137.1,30.2h-3.1v7.5h3.1V30.2z"/>
			<path class="st43" d="M190.6,30.2h-4.7v7.5h4.7V30.2z"/>
			<path class="st43" d="M169.1,30.2h-3.9v7.5h3.9V30.2z"/>
			<path class="st43" d="M147.6,30.2h-3.1v7.5h3.1V30.2z"/>
			<path class="st43" d="M114.6,30.2h-2.4v7.5h2.4V30.2z"/>
			<path class="st43" d="M125.2,30.2h-2.4v7.5h2.4V30.2z"/>
			<path class="st43" d="M93.1,30.2h-1.6v7.5h1.6V30.2z"/>
			<path class="st43" d="M103.7,30.2h-1.6v7.5h1.6V30.2z"/>
			<path class="st43" d="M71.2,30.2h-0.8v7.5h0.8V30.2z"/>
			<path class="st43" d="M81.7,30.2h-0.8v7.5h0.8V30.2z"/>
			<path class="st43" d="M201.5,17.2H196v7.5h5.5V17.2z"/>
			<path class="st43" d="M180,17.2h-4.7v7.5h4.7V17.2z"/>
			<path class="st43" d="M158.5,17.2h-3.9v7.5h3.9V17.2z"/>
			<path class="st43" d="M137.1,17.2h-3.1v7.5h3.1V17.2z"/>
			<path class="st43" d="M190.6,17.2h-4.7v7.5h4.7V17.2z"/>
			<path class="st43" d="M169.1,17.2h-3.9v7.5h3.9V17.2z"/>
			<path class="st43" d="M147.6,17.2h-3.1v7.5h3.1V17.2z"/>
			<path class="st43" d="M114.6,17.2h-2.4v7.5h2.4V17.2z"/>
			<path class="st43" d="M125.2,17.2h-2.4v7.5h2.4V17.2z"/>
			<path class="st43" d="M93.1,17.2h-1.6v7.5h1.6V17.2z"/>
			<path class="st43" d="M103.7,17.2h-1.6v7.5h1.6V17.2z"/>
			<path class="st43" d="M71.2,17.2h-0.8v7.5h0.8V17.2z"/>
			<path class="st43" d="M81.7,17.2h-0.8v7.5h0.8V17.2z"/>
		</g>
		<path class="st30" d="M309.5,36.8c-5.1,0-9.3-4.1-9.3-9.2c0-5.1,4.2-9.2,9.3-9.2c5.1,0,9.3,4.1,9.3,9.2
			C318.8,32.7,314.6,36.8,309.5,36.8z M309.5,19.4c-4.5,0-8.2,3.7-8.2,8.2c0,4.5,3.7,8.2,8.2,8.2c4.5,0,8.2-3.7,8.2-8.2
			C317.7,23.1,314,19.4,309.5,19.4z"/>
		<path class="st18" d="M385.2,353.7H220.8v2.1h164.4V353.7z"/>
		<path class="st18" d="M142.3,376.1H56.1v2.1h86.2V376.1z"/>
		<path class="st18" d="M505,366.2h-86.2v2.1H505V366.2z"/>
		<path class="st22" d="M239.8,226.6c-0.3-0.1-4.6-1.6-5.3-5.1c-0.1-0.3-0.2-1.3,0.1-2.2c0.8-2.6,4.8-4.1,9.7-3.8
			c1.1-0.7,3.4-2,6.5-2c3.8-0.1,8.1,1.5,10.5,4.7c3.1,4.1,0.5,7.1,3.2,9.8c3.3,3.4,8.2-0.4,14.6,3.3c1.2,0.6,4.9,2.7,6.2,6.6
			c2.3,6.5-4.4,11.2-1.8,16.2c1.5,2.8,3.9,2.5,6,6c1.7,2.8,1.2,5.9,0.9,7.2c-1.5,9-16.2,17.9-27,14.4c-7.6-2.5-14.8-11.7-15-11.8
			l-3.6-34.5C243.3,232.4,241.5,229.5,239.8,226.6z"/>
		<path class="st23" d="M269.1,276.1c-7.5-4-0.4-21-7.5-28.1c-7.1-7.1-8.5-9.3-7.5-13.5c1-4.2-0.4-4.4-6.7-5.9c0,0-2.1,0.9-5,2.2
			c0.9,1.6,1.9,3.1,2.8,4.7l3.6,34.5c0.2,0.1,7.4,9.3,15,11.8c7.4,2.4,16.7-1,22.2-6.3C280.7,277.9,274,278.6,269.1,276.1z"/>
		<path class="st44" d="M227.9,264.1c3.6-4.7,6.9-8.5,9.5-11.3c7.4-8,10-9.1,12.1-8.7c1.7,0.3,2.9,1.7,3.7,2.8
			c0.3,0.6,0.6,1.6,0.7,2.8c0.2,4-2.7,7-6.8,11.2c-12.1,12.2-13.5,13.4-16.7,14.3c-1.5,0.4-2.7,0.6-8.6,0.6
			c-5.3,0-12.9-0.1-22.2-0.7c-0.1-2.6-0.2-5.1-0.2-7.7C208.9,266.4,218.4,265.3,227.9,264.1z"/>
		<path class="st45" d="M237.4,252.8c-2.6,2.8-5.9,6.6-9.5,11.3c-7.3,0.9-14.6,1.7-21.9,2.6c1.2,2.3,2.7,4.9,2.7,4.9
			s13.8,0.8,19.2-0.9c5.4-1.7,7.3-3.7,7.9-10.8c0.6-6.1,2-5.7,5.7-11.3C240.3,249.7,239,251.1,237.4,252.8z"/>
		<path class="st27" d="M238.2,224.3c-0.2-0.2-0.5-0.4-0.7-0.6l-0.2-0.2l-0.2-0.2c-0.1-0.1-0.2-0.2-0.3-0.4
			c-0.1-0.1-0.2-0.2-0.3-0.4c-0.1-0.1-0.2-0.3-0.2-0.4c-0.2-0.3-0.3-0.6-0.4-0.9c-0.1-0.3-0.1-0.6-0.2-0.9c0-0.3,0-0.6,0.1-0.9
			c0-0.1,0-0.1,0.1-0.2c0-0.1,0.1-0.2,0.1-0.2c0-0.1,0.1-0.1,0.1-0.2c0-0.1,0.1-0.1,0.1-0.2c0.2-0.3,0.4-0.5,0.6-0.7
			c0.4-0.5,1-0.8,1.6-1.1c0.3-0.1,0.6-0.2,0.9-0.3c0.3-0.1,0.6-0.1,0.9-0.2c0.3,0,0.6-0.1,0.9-0.1c0.3,0,0.6,0,0.9,0.1
			c0.3,0,0.6,0.1,0.9,0.2c0.3,0.1,0.6,0.2,0.9,0.3l-0.2,0c0.6-0.4,1.3-0.7,2-0.9c0.7-0.3,1.4-0.5,2.1-0.6c0.7-0.2,1.5-0.3,2.2-0.4
			c0.7,0,1.5-0.1,2.2,0c0.2,0,0.4,0,0.6,0l0.6,0.1l0.3,0c0.1,0,0.2,0,0.3,0.1l0.5,0.1c0.7,0.2,1.4,0.4,2.1,0.7
			c1.4,0.5,2.7,1.4,3.7,2.5l0,0l0,0l0,0l0,0.1l0.1,0.1c0.1,0.1,0.1,0.1,0.2,0.2c0.1,0.2,0.2,0.3,0.3,0.5c0.2,0.3,0.4,0.7,0.6,1
			c0.3,0.7,0.5,1.5,0.6,2.2c0.1,0.7,0.1,1.5,0.1,2.2c0,0.7,0.1,1.4,0.3,2c0.1,0.3,0.2,0.6,0.4,0.9c0,0.1,0.1,0.1,0.1,0.2l0.1,0.2
			c0.1,0.1,0.2,0.3,0.3,0.4c0.1,0.1,0.2,0.2,0.3,0.3l0.2,0.2c0.1,0.1,0.1,0.1,0.2,0.1c0.3,0.2,0.6,0.4,0.9,0.5
			c0.6,0.3,1.3,0.4,2,0.5c0.7,0.1,1.4,0.2,2.1,0.2l2.2,0.1c0.7,0,1.5,0.1,2.2,0.2c1.5,0.2,2.9,0.5,4.3,1.1c0.7,0.3,1.3,0.7,2,1.1
			l0.4,0.3c0.1,0.1,0.2,0.1,0.2,0.2l0.2,0.2c0.1,0.1,0.3,0.2,0.4,0.4c0.1,0.1,0.3,0.2,0.4,0.4c1.1,1,2,2.2,2.6,3.6
			c0.3,0.7,0.5,1.4,0.6,2.2c0,0.1,0,0.2,0,0.3l0,0.3l0,0.1v0c0,0,0,0,0,0l0,0l0,0.1l0,0.3l0,0.1l0,0.1l0,0.3c0,0.2-0.1,0.4-0.1,0.6
			c-0.2,0.7-0.5,1.4-0.9,2c-0.3,0.6-0.7,1.3-1,1.9c-0.3,0.7-0.5,1.3-0.6,2c-0.1,0.7-0.2,1.4-0.2,2.1c0,1.4,0.3,2.9,0.9,4.2
			c-0.6-1.3-1-2.7-1.1-4.2c-0.1-0.7,0-1.5,0.1-2.2c0.1-0.7,0.3-1.4,0.5-2.1c0.3-0.7,0.6-1.3,0.9-2c0.3-0.6,0.6-1.3,0.8-2
			c0-0.2,0.1-0.3,0.1-0.5l0-0.2l0-0.1l0-0.1l0-0.3l0-0.1l0,0c0,0,0,0,0,0l0,0l0-0.1l0-0.3c0-0.1,0-0.2,0-0.3c-0.1-0.7-0.3-1.3-0.6-2
			c-0.6-1.3-1.5-2.3-2.6-3.3c-0.1-0.1-0.3-0.2-0.4-0.4c-0.1-0.1-0.3-0.2-0.4-0.3l-0.2-0.2c-0.1-0.1-0.1-0.1-0.2-0.2l-0.4-0.3
			c-0.6-0.4-1.2-0.7-1.8-1c-1.3-0.5-2.7-0.9-4.1-1c-1.4-0.2-2.8-0.2-4.3-0.2c-0.7,0-1.5-0.1-2.2-0.2c-0.7-0.1-1.5-0.3-2.2-0.6
			c-0.4-0.2-0.7-0.3-1-0.6c-0.1-0.1-0.2-0.1-0.2-0.2l-0.2-0.2c-0.1-0.1-0.3-0.3-0.4-0.4c-0.1-0.1-0.2-0.3-0.3-0.4l0,0l0,0l0,0l0-0.1
			l-0.1-0.1c-0.1-0.1-0.1-0.2-0.2-0.3c-0.2-0.3-0.4-0.7-0.5-1.1c-0.2-0.7-0.3-1.5-0.4-2.2c0-0.7,0-1.4-0.1-2.1
			c-0.1-0.7-0.2-1.3-0.5-2c-0.1-0.3-0.3-0.6-0.5-0.9c-0.1-0.1-0.2-0.3-0.3-0.4c0-0.1-0.1-0.1-0.2-0.2l-0.1-0.1l0-0.1l0,0
			c-0.9-1-2.1-1.8-3.4-2.3c-0.6-0.3-1.3-0.5-2-0.7l-0.5-0.1c-0.1,0-0.2,0-0.3-0.1l-0.3,0l-0.5-0.1c-0.2,0-0.3,0-0.5-0.1
			c-0.7-0.1-1.4-0.1-2.1,0c-0.7,0.1-1.4,0.1-2.1,0.3c-1.4,0.3-2.7,0.8-4,1.4l-0.1,0.1l-0.1,0c-0.3-0.1-0.5-0.2-0.8-0.3
			c-0.3-0.1-0.6-0.1-0.9-0.2c-0.3,0-0.6-0.1-0.9-0.1c-0.3,0-0.6,0-0.9,0c-0.3,0-0.6,0.1-0.9,0.1c-0.3,0.1-0.6,0.2-0.8,0.3
			c-0.5,0.2-1.1,0.5-1.5,0.9c-0.2,0.2-0.4,0.4-0.6,0.7c0,0.1-0.1,0.1-0.1,0.2c0,0.1-0.1,0.1-0.1,0.2c0,0.1-0.1,0.1-0.1,0.2
			c0,0.1,0,0.1-0.1,0.2c-0.1,0.3-0.1,0.6-0.1,0.9c0,0.3,0.1,0.6,0.1,0.9c0.1,0.3,0.2,0.6,0.3,0.8c0.1,0.1,0.1,0.3,0.2,0.4
			c0.1,0.1,0.2,0.3,0.2,0.4c0.1,0.1,0.2,0.2,0.3,0.4l0.1,0.2l0.2,0.2C237.8,223.9,238,224.1,238.2,224.3z"/>
		<path class="st25" d="M239.7,281.3c-3.7,17.6-7.4,35.2-11.1,52.7c0.7,16.9,1.5,33.9,2.2,50.8c1.3,0.1,2.5,0.2,3.8,0.3
			c2.5-10,4.2-16.6,5.3-20.8c1.9-7.5,3.2-12.2,2.5-18.7c-0.4-3.6-1.2-6.5-1.9-8.4c3.5-10.5,7-21,10.5-31.4
			C247.2,297.6,243.5,289.5,239.7,281.3z"/>
		<path class="st37" d="M234.6,384.5l-3.9-0.4c0,0-10.6,0.3-10.7,2c-0.1,1.7,13.5,2,14.4,1.6C235.4,387.3,234.6,384.5,234.6,384.5z"
			/>
		<path class="st25" d="M240.4,288c4.2,15.9,8.5,31.8,12.7,47.7c8.8,14.5,17.7,29,26.5,43.4c1.2-0.5,2.3-1.1,3.5-1.6
			c-2.6-9.9-4.4-16.6-5.5-20.7c-1.9-7.5-3.1-12.2-6.9-17.5c-2.1-2.9-4.2-5.1-5.7-6.4c-2-10.9-4-21.7-6-32.6
			C252.8,296.2,246.6,292.1,240.4,288z"/>
		<path class="st37" d="M282.7,377.1l-3.6,1.5c0,0-9.1,5.4-8.3,6.9c0.8,1.5,12.8-4.8,13.4-5.6C284.8,379.1,282.7,377.1,282.7,377.1z
			"/>
		<path class="st45" d="M266,301.9c-0.1-1.7-0.3-7.5-2-15c-0.9-3.7-1.8-6.7-2.5-8.6c-1.3-6.9-2.5-13.9-3.8-20.8c0,0,0-8-2.2-11.9
			c-0.5-0.8-1-1.5-1-1.5c-0.3-0.4-0.6-0.8-0.8-1.1c-1.7,1.4-7.2,1.2-7.2,1.2c-1.9,2.5-3.4,4.7-4.5,6.3c-3.2,4.7-3.8,6.3-3.4,7.9
			c0.4,1.5,1.4,2.5,2.2,3c-0.1,4-0.4,8.2-0.8,12.7c-0.3,3-0.7,5.9-1.1,8.7c-1.9,7.6-3.8,15.5-5.5,23.7c-2.1,10-3.9,19.7-5.3,28.9
			c7.9,6.7,12.8,7.2,16,6.3c2.4-0.7,4-2,7.9-2.5c3.6-0.5,5.1,0.7,8.1,1c3,0.3,7.4-0.2,13.2-4.3C267.8,317.9,266.3,307.9,266,301.9z"
			/>
		<path class="st25" d="M245.4,237.1c0.5,1.5,0.7,2.8,0.8,4.2c0.1,1.3,0.2,2.4,0.2,3.3c0.8,0.1,2,0.1,3.2-0.1
			c1.8-0.3,3.2-0.9,4.1-1.4c-0.8-1-1.6-2.1-2.4-3.3c-1.1-1.6-1.9-3.2-2.6-4.7c-0.2-0.8-0.4-1.5-0.6-2.3c-1.6,0.1-3.2,0.1-4.9,0.2
			C244.4,234.6,245,236.1,245.4,237.1z"/>
		<path class="st25" d="M240,224.5c-2.6,7.9-1.6,14.4,1.3,15.8c0.9,0.4,2.8,0.7,4.8,0.1c0.9-0.3,2.6-0.8,3.3-2.2l0.4-3.7
			c0.6,0.1,0.9-0.1,1.1-0.2c1.2-0.7,1.1-3.4,0-4c-0.3-0.2-0.8-0.3-1.2-0.1c-0.5,0.2-1.1,0.7-1.1,0.7c-0.1-2.6-0.8-3.6-1.5-4
			c-0.9-0.6-1.8-0.3-3.5-0.8C241.9,225.7,240.7,225,240,224.5z"/>
		<path class="st46" d="M242.4,267.8c0,0.7,0,1.3-0.1,2l-0.1,2c0,0.7-0.1,1.3-0.1,2l-0.1,2l-0.2,3.9c-0.1,1.3-0.2,2.6-0.2,3.9l0,0
			l0,0c-0.2,1-0.3,2-0.5,2.9l-0.5,2.9l-0.5,2.9l-0.6,2.9l-0.6,2.9l-0.6,2.9l-0.6,2.9l-0.6,2.9l-1.2,5.9l-0.6,2.9
			c-0.2,1-0.4,2-0.6,2.9l-0.6,2.9c-0.2,1-0.4,1.9-0.7,2.9l-0.3,1.5l-0.3,1.5c-0.2,1-0.5,1.9-0.7,2.9c0.1-1,0.3-2,0.4-3l0.2-1.5
			l0.2-1.5c0.2-1,0.3-2,0.5-3l0.5-3c0.2-1,0.3-2,0.5-2.9l0.5-2.9l1.1-5.9l0.6-2.9l0.6-2.9l0.6-2.9l0.6-2.9l0.6-2.9l0.6-2.9l0.6-2.9
			c0.2-1,0.4-1.9,0.6-2.9l0,0.1c0.1-1.3,0.3-2.6,0.4-3.9l0.4-3.9l0.2-2c0.1-0.7,0.1-1.3,0.2-2l0.2-2
			C242.2,269.1,242.3,268.4,242.4,267.8z"/>
		<path class="st19" d="M250.4,235c0.5,0,0.9-0.4,0.9-0.9c0-0.5-0.4-0.9-0.9-0.9c-0.5,0-0.9,0.4-0.9,0.9
			C249.6,234.6,249.9,235,250.4,235z"/>
		<defs>
			<filter id="Adobe_OpacityMaskFilter" filterUnits="userSpaceOnUse" x="247.7" y="339.1" width="8.6" height="1.2">
				<feColorMatrix  type="matrix" values="1 0 0 0 0  0 1 0 0 0  0 0 1 0 0  0 0 0 1 0"/>
			</filter>
		</defs>
		<mask maskUnits="userSpaceOnUse" x="247.7" y="339.1" width="8.6" height="1.2" id="mask0_1_">
			
				<linearGradient id="SVGID_11_" gradientUnits="userSpaceOnUse" x1="252.035" y1="46.369" x2="252.035" y2="132.779" gradientTransform="matrix(1 0 0 -1 0 390)">
				<stop  offset="0" style="stop-color:#FFFFFF"/>
				<stop  offset="1" style="stop-color:#333333"/>
			</linearGradient>
			<path class="st47" d="M251.9,339.2c-1.7,0.2-3,0.6-4.1,1.1c2.9-0.1,5.8-0.3,8.6-0.8C255.1,339.2,253.8,339,251.9,339.2z"/>
		</mask>
		<g class="st48">
			
				<linearGradient id="SVGID_12_" gradientUnits="userSpaceOnUse" x1="252.035" y1="46.369" x2="252.035" y2="132.779" gradientTransform="matrix(1 0 0 -1 0 390)">
				<stop  offset="0" style="stop-color:#2EB872"/>
				<stop  offset="1" style="stop-color:#A3DE83"/>
			</linearGradient>
			<path class="st49" d="M251.9,339.2c-1.7,0.2-3,0.6-4.1,1.1c2.9-0.1,5.8-0.3,8.6-0.8C255.1,339.2,253.8,339,251.9,339.2z"/>
		</g>
		<path class="st50" d="M255.1,283.3c1.5-1.8,1.7-4,1.8-5.9c0.3-5.4,0.4-13.2-0.2-23.3c-6.3-6-8.9-5.8-10.1-5.3
			c-3.3,1.6-2.6,11-1.7,21.9c0.2,2.1,0.4,4,0.5,5.4c-2,0.3-3.9,0.6-5.9,0.9c-0.1,0.9-0.2,1.8-0.3,2.7c-0.1,1.1-0.3,2.2-0.5,3.2
			c0,0,0,0,0,0c-0.1,0.6-0.3,1.1-0.4,1.7c0,0,0,0,0,0.1C240.3,285.1,250.9,288.3,255.1,283.3z"/>
		<path class="st25" d="M226.7,280.6c-1.3,0.5-3.3,1.1-5.7,1c-0.4,0-0.8-0.1-1.6-0.2c-1.9-0.2-4.4-0.6-7.2-2c-1-0.5-1.2-0.7-1.2-0.9
			c0.1-0.5,3.3,0.2,6.8,0.2c1.9,0,4.5-0.2,7.7-1c0.1,0.1,0.2,0.2,0.3,0.3c0.1,0.2,0.3,0.4,0.5,0.8
			C226.5,279.5,226.7,280.4,226.7,280.6z"/>
		<path class="st45" d="M246.5,276.5c-0.8-6.3-1.3-11.6-1.5-15.7c-0.6-9.8-0.2-13.2,2-14.8c1.4-1,3.2-0.9,4.6-0.7
			c0,0,1.3,0.3,2.5,1.5c3.4,3.3,3.1,9,2.6,14.4c-0.6,5.7-1.3,12.2-2.4,19.5c-0.3,2.1-2.2,3.6-4.3,3.4c-8.4-1-16.8-1.9-25.2-2.9
			c-0.1-1-0.3-2-0.4-3C231.8,277.7,239.2,277.1,246.5,276.5z"/>
		<path class="st51" d="M199.9,279.4l-8.4-20c-0.2-0.4,0.1-0.9,0.6-0.9l13.1-0.6l7.9,20.9L199.9,279.4z"/>
		<path class="st14" d="M212.9,278.9l21.3-0.9c0.3,0,0.5-0.2,0.5-0.5l0-0.1c0-0.3-0.2-0.5-0.5-0.5l-21.3,0.9L212.9,278.9z"/>
		<path class="st14" d="M214.1,278.4l-8.4-20.3c-0.1-0.2-0.3-0.3-0.5-0.2l-0.4,0.2c-0.2,0.1-0.3,0.3-0.2,0.5l8.4,20.3
			c0,0,0.1,0.1,0.1,0l0.9-0.4C214.1,278.5,214.1,278.4,214.1,278.4z"/>
		<path class="st14" d="M201.4,265.5c0.4,1.1,0.5,2.2,0.1,2.3c-0.4,0.2-1.1-0.6-1.5-1.8c-0.4-1.1-0.5-2.2-0.1-2.3
			C200.2,263.6,200.9,264.4,201.4,265.5z"/>
		<path class="st25" d="M193.3,266c-0.1-0.2-0.1-0.3-0.1-0.5c1.6-0.5,3.1-1,3.2-0.7c0,0.1,0,0.2,0,0.2c0,0,0,0.2-0.4,0.4
			c-0.4,0.2-0.3,0.5-2,1.1C193.7,266.5,193.4,266.3,193.3,266z"/>
		<path class="st25" d="M194.5,269.2c2-0.2,1.9-0.1,2.8-0.3c0.3-0.1,1.1-0.2,1.4,0.2c0,0,0.1,0.1,0.1,0.2c0,0.3-0.9,0.6-4.2,1.2
			c-0.1-0.1-0.2-0.3-0.2-0.5C194.2,269.5,194.4,269.2,194.5,269.2z"/>
		<path class="st25" d="M193.9,268.6c-0.1-0.3,0.1-0.7,0.5-0.8c-0.4,0-0.8-0.3-0.8-0.7c0-0.3,0.2-0.6,0.5-0.6
			c2.8-0.6,3.4-0.8,3.9-0.9c0.4,0,0.6,0.1,0.7,0.2c0.1,0.1,0.1,0.2,0.2,0.3c0,0.2-0.8,0.7-4.4,1.7c0.6-0.1,4.5-0.6,4.8-0.4
			c0.2,0.2,0.2,0.3,0.2,0.3c-0.1,0.2-0.3,0.2-0.3,0.2c-1.6,0.6-2.6,0.7-2.6,0.7c-0.5,0.1-1.2,0.2-2,0.5
			C194.2,269.1,193.9,268.9,193.9,268.6z"/>
		<path class="st18" d="M295.1,386.8h-86.2v2.1h86.2V386.8z"/>
		<path class="st22" d="M85.7,81.4c-6.4,3.4-5.2,10.3-10.6,11.9c-3.7,1.1-5-2-11.5-2.3C62,91,56.1,90.7,51,94
			c-4.4,2.9-9.2,9.2-11.5,15.2c-0.5,1.2-1.3,3.4-3.3,4.2c-1.9,0.7-4-0.1-5.4-0.9c0.5,2,1.6,4.7,4,6.3c5,3.3,10.2-1.5,15.7,1.4
			c5,2.7,3.3,8.2,8.6,11c4,2.1,9.3,1.2,12.8-0.8c5.2-3.1,3.7-7.3,7.9-9.7c5.9-3.2,10.9,3.8,20.8,1.9c1.3-0.2,7.7-1.5,11.6-7
			c4.6-6.6,3.6-16.7-0.9-21.1c-1.9-1.8-3.2-1.6-5.8-4.4c-3.3-3.6-2.7-5.6-5-7.7C96.9,79.3,90.2,79,85.7,81.4z"/>
		<path class="st23" d="M34.7,118.8c5,3.3,10.2-1.5,15.7,1.4c5,2.7,3.3,8.2,8.6,11c4,2.1,9.3,1.2,12.8-0.8c5.2-3.1,3.7-7.3,7.9-9.7
			c5.2-2.8,9.7,2.2,17.4,2.2c4.7-7.6,9.3-17,5.9-21.1c-6.2-7.5-9.5-0.9-9.5-0.9l-3.8-5.8L89,96c-2.6,1.1-5.8,5.5-1.8,10
			c0,0-16.9,1.5-21.3,11.7c-4.4,10.2-15.8-5.3-23.1-2.4c-7.3,2.9-12-2.8-12-2.8C31.2,114.5,32.3,117.2,34.7,118.8z"/>
		<path class="st27" d="M42.5,108.3c0,0,0-0.1,0.1-0.4c0.1-0.3,0.1-0.6,0.3-1.1c0.1-0.5,0.3-1,0.5-1.7c0.2-0.6,0.5-1.3,0.9-2.1
			c0.4-0.7,0.8-1.5,1.4-2.3c0.5-0.8,1.2-1.6,1.9-2.4c0.7-0.8,1.5-1.5,2.4-2.2c0.9-0.7,1.8-1.3,2.8-1.8l0.7-0.4
			c0.3-0.1,0.5-0.2,0.8-0.3c0.3-0.1,0.5-0.2,0.8-0.3c0.3-0.1,0.5-0.2,0.8-0.3c1.1-0.3,2.1-0.5,3.2-0.7c1-0.1,2.1-0.2,3-0.2
			c1,0,1.9,0.1,2.7,0.2c0.8,0.1,1.6,0.3,2.2,0.5c0.7,0.2,1.2,0.4,1.7,0.5c0.5,0.2,0.8,0.3,1,0.4c0.2,0.1,0.4,0.2,0.4,0.2
			S70,94.1,69.7,94c-0.2-0.1-0.6-0.2-1.1-0.3c-0.9-0.3-2.3-0.6-3.9-0.8c-0.8-0.1-1.7-0.1-2.6-0.1c-0.9,0-1.9,0.1-2.9,0.2
			c-1,0.1-2,0.4-3.1,0.7c-0.3,0.1-0.5,0.2-0.8,0.3c-0.3,0.1-0.5,0.2-0.8,0.3c-0.2,0.1-0.5,0.2-0.7,0.3L53.1,95
			c-1,0.5-1.9,1.1-2.8,1.7c-0.9,0.6-1.7,1.3-2.4,2.1c-0.7,0.7-1.3,1.5-1.9,2.2c-0.6,0.8-1,1.5-1.4,2.2c-0.8,1.4-1.3,2.7-1.7,3.6
			c-0.2,0.5-0.3,0.8-0.3,1.1C42.6,108.1,42.5,108.3,42.5,108.3z"/>
		<path class="st20" d="M150.9,127.3c-1.4,0.2-3,0.3-4.7,0.4l0.9,8.5c2-0.6,3.6-1.2,4.9-1.7C151.6,132,151.2,129.7,150.9,127.3z"/>
		<path class="st52" d="M140.6,127.6c-6.2-0.3-10.9-1.6-13.1-2.2c-3.8-1.1-6.1-2.2-24.9-12c-0.8-0.4-2.9-1.5-3.7-1.9
			c-2.4,2.3-4.9,4.6-7.3,7c4.1,4.7,12.7,13.1,25.5,17.3c12.5,4.1,23.3,2.4,30,0.4l-0.9-8.5C144.4,127.7,142.6,127.7,140.6,127.6z"/>
		<path class="st25" d="M104.2,147.1c3.8,18.3,7.7,36.6,11.5,54.9c-0.8,17.6-1.5,35.3-2.3,52.9c-1.3,0.1-2.6,0.2-4,0.3
			c-2.6-10.4-4.4-17.3-5.5-21.6c-2-7.8-3.3-12.7-2.6-19.4c0.4-3.7,1.3-6.7,2-8.7c-3.6-10.9-7.3-21.8-10.9-32.7
			C96.4,164.1,100.3,155.6,104.2,147.1z"/>
		<path class="st37" d="M109.5,254.6l4-0.4c0,0,11,0.3,11.1,2.1c0.1,1.8-14,2.1-15,1.6C108.7,257.4,109.5,254.6,109.5,254.6z"/>
		<path class="st25" d="M103.4,154.1c-4.4,16.5-8.8,33.1-13.2,49.6c-9.2,15.1-18.4,30.1-27.6,45.2c-1.2-0.6-2.4-1.1-3.6-1.7
			c2.7-10.3,4.6-17.3,5.7-21.6c2-7.8,3.3-12.7,7.1-18.2c2.2-3.1,4.4-5.3,6-6.7c2.1-11.3,4.2-22.6,6.3-33.9
			C90.6,162.6,97,158.4,103.4,154.1z"/>
		<path class="st37" d="M59.4,246.8l3.8,1.6c0,0,9.5,5.6,8.7,7.2c-0.8,1.6-13.3-4.9-13.9-5.8C57.3,248.9,59.4,246.8,59.4,246.8z"/>
		<path class="st19" d="M104.5,146.3c2.2,8.6,4.4,17.6,6.4,27c2.2,10.4,4,20.5,5.6,30.1c-8.2,7-13.4,7.5-16.7,6.6
			c-2.5-0.7-4.2-2.1-8.2-2.6c-3.7-0.5-5.3,0.7-8.5,1.1c-3.1,0.3-7.7-0.2-13.8-4.5c4.7-18.7,6.4-29.8,6.8-36.9
			c0.2-2.4,0.4-8.5,3.8-15.3c1.8-3.6,3.9-6.3,5.4-7.9C91.7,144.7,98.1,145.5,104.5,146.3z"/>
		<path class="st21" d="M91,204.6c-7.7-6.1,1.3-22.2,4.8-28.8c3.4-6.6,6.3-14.5-0.2-21.5c0,0-6.9-5-12-8.3c-1.2,1.5-2.5,3.5-3.7,5.9
			c-3.3,6.8-3.6,12.9-3.8,15.3c-0.4,7-2.1,18.1-6.8,36.9c6.1,4.3,10.6,4.8,13.8,4.5c3.2-0.3,4.8-1.5,8.5-1.1c4,0.5,5.7,2,8.2,2.6
			c1.2,0.3,2.6,0.5,4.2,0.2C99.9,209.4,94.9,207.7,91,204.6z"/>
		<path class="st26" d="M157.8,130.8c0-0.1,0.2-0.4,0.1-0.7c-0.1-0.5-0.5-0.6-0.6-0.6c0,0,0.2-0.3,0.1-0.7c0,0,0,0,0,0
			c-0.1-0.3-0.5-0.5-0.8-0.5c-0.9,0.2-2.1,0.4-3.4,0.7c0.1-0.1,0.3-0.3,0.6-0.6c1.3-1.2,2.4-1.9,2.3-2.1c0-0.1-0.2-0.1-0.2-0.1
			c-0.2,0-0.4,0-0.4,0.1c-1.2,0.7-2.3,1.4-3.1,1.8c-0.3,0.2-0.9,0.5-1.3,1c-0.1,0.1-0.2,0.2-0.2,0.3c-0.6,0-1.1,0.1-1.7,0.1
			c0.3,1.3,0.5,2.5,0.8,3.8c0.5-0.1,1-0.2,1.5-0.3c0.1,0.1,0.2,0.3,0.5,0.4c0.5,0.3,1.1,0.3,1.5,0.3c1-0.1,0.9-0.4,2.2-0.6
			c0.2,0,0.6-0.1,1-0.4c0.2-0.2,0.3-0.3,0.4-0.5c-0.2,0-0.4-0.1-0.7-0.1C156.8,131.6,157.3,131.2,157.8,130.8z"/>
		<path class="st25" d="M155.6,127.3c1.7-1.6,3.2-2.4,3-2.8c0-0.1-0.2-0.2-0.3-0.2c-0.2-0.1-0.5,0.1-0.6,0.1c-1.6,0.9-3.1,1.8-4,2.4
			c-0.4,0.2-1.1,0.6-1.7,1.3c-0.1,0.2-0.2,0.3-0.3,0.4l3.1-0.5C155,127.8,155.2,127.6,155.6,127.3z"/>
		<path class="st53" d="M151.9,134.4C151.9,134.4,151.9,134.4,151.9,134.4c-3.3,1.4-7.6,1.8-12.3,1.6c-2.5-0.1-7.9-0.2-14.4-2.4
			c-10.7-3.6-17.1-10.1-18.7-11.9c-3.3-3.5-5.4-7-6.7-9.4c-2.8,2-5.5,4-8.3,6c4.1,4.7,12.7,13.1,25.5,17.3
			C133.1,141.1,146.5,136.6,151.9,134.4z"/>
		
			<linearGradient id="SVGID_13_" gradientUnits="userSpaceOnUse" x1="61.374" y1="252.321" x2="109.3492" y2="249.492" gradientTransform="matrix(1 0 0 -1 0 390)">
			<stop  offset="0.3548" style="stop-color:#312B30"/>
			<stop  offset="1" style="stop-color:#191519"/>
		</linearGradient>
		<path class="st54" d="M90,139.4l0-0.2C90,139.3,90,139.4,90,139.4L90,139.4z"/>
		
			<linearGradient id="SVGID_14_" gradientUnits="userSpaceOnUse" x1="61.2552" y1="252.1699" x2="109.4141" y2="249.3319" gradientTransform="matrix(1 0 0 -1 0 390)">
			<stop  offset="0.3548" style="stop-color:#312B30"/>
			<stop  offset="1" style="stop-color:#191519"/>
		</linearGradient>
		<path class="st55" d="M90.1,139.6C90.1,139.6,90.1,139.6,90.1,139.6c-0.1,0-0.1-0.1-0.1-0.1L90.1,139.6z"/>
		<path class="st25" d="M95.5,105c0,1.7,0.4,3,0.7,4.4c0.3,1.3,0.7,2.5,1,3.3c-0.8,0.4-1.9,0.8-3.2,1.1c-1.9,0.3-3.5,0.2-4.5,0
			c0.4-1.1,0.9-2.5,1.2-4.1c0.4-2.1,0.3-3.9,0.2-5.2c0.2-0.9,0.3-1.8,0.5-2.7c1.6-0.5,3.2-1,4.8-1.5C95.5,102.2,95.4,103.9,95.5,105
			z"/>
		<path class="st25" d="M99.6,89.8c3.3,8,2.7,14.9-0.2,16.5c-0.9,0.5-2.9,1-5,0.5c-0.9-0.2-2.7-0.6-3.6-2.1l-0.6-3.9
			c-0.6,0.1-1,0-1.2-0.1c-1.3-0.7-1.4-3.4-0.3-4.2c0.3-0.2,0.8-0.3,1.2-0.2c0.6,0.1,1.2,0.7,1.2,0.7c-0.1-2.7,0.6-3.8,1.3-4.3
			c0.9-0.7,1.8-0.5,3.6-1C97.6,91.2,98.8,90.4,99.6,89.8z"/>
		<path class="st52" d="M96.5,110.3c1.9,0.9,3.9,1.9,5.8,2.8c0.2,1.1,0.7,2.9,1.5,4.9c2.4,6.2,5.6,8.7,4.6,11.7
			c-0.4,1.3-1.4,2.2-2.4,2.8c-0.7,3.2-1.3,7.5-1,12.5c0.2,3,0.6,5.7,1.2,7.9c-2.7,0.8-7.6,2-13.7,1.2c-5.2-0.7-9.1-2.5-11.5-3.8
			c1.1-2.7,2.1-5.9,2.7-9.7c1.9-11-0.8-20.3-2.8-25.3c3-1.3,6-2.7,9-4c0.9,0.2,2.4,0.4,4.2,0C95.2,110.9,96,110.6,96.5,110.3z"/>
		<path class="st56" d="M151.7,129.1L151.7,129.1l-1.4-2.4l-73.9,43c0,0.1-0.6,0.9-0.2,1.8c0.3,0.7,1.1,1.2,1.9,1.2
			c24.9-13.8,49.9-27.6,74.8-41.3L151.7,129.1z"/>
		<path class="st57" d="M151.3,129.1l0.3-0.2l-0.8-1.4l-74.6,43.8c0,0.1,0.1,0.2,0.1,0.4c0.1,0.3,0.3,0.5,0.5,0.7L151.3,129.1z"/>
		<path class="st58" d="M168.1,114.2l7.4-7.4c3.7-0.6,7.4,1.3,8.8,4.6c1.2,2.8,0.7,6.1-1.4,8.5c-3.4,1.1-6.9,2.2-10.4,3.3
			L168.1,114.2z"/>
		<path class="st59" d="M150.1,126.9l2.7,4.8l20.4-8.4l-5.4-9.5L150.1,126.9z"/>
		<path class="st56" d="M172,122l-3.2-5.6l-2.7,1.6l3.2,5.6L172,122z"/>
		<path class="st56" d="M164.9,119.4l2.7,4.7c-1.4,0.2-3,0.5-4.6,1c-3,0.9-5.5,2.1-7.4,3.2c-0.1-0.2-0.2-0.4-0.3-0.5
			c2-1.1,4.3-2.8,6.7-5C163.1,121.6,164.1,120.5,164.9,119.4z"/>
		<path class="st60" d="M154.8,128.9l-0.3-0.6l-1,0.6l0.3,0.6L154.8,128.9z"/>
		<path class="st60" d="M169.9,124.6c-3.8,0.7-12.1,4-13.5,4.8l0.2,0.6L169.9,124.6z"/>
		<path class="st60" d="M153.6,124.3l0.7,1.2l13.8-11.3l-0.3-0.4L153.6,124.3z"/>
		<path class="st60" d="M165.3,117c0,0-7.9,7.8-10.6,9.7c-1.9,1.4-2.9,2-3.3,2.3l0.3,0.4c2.2-1.5,4.5-3.2,6.8-5.1
			c2.7-2.2,5.1-4.4,7.2-6.5l-0.2-0.6l3.1-2.5l0,0L165.3,117z"/>
		<path class="st25" d="M95.3,164.3c0.3-0.3,0.3-0.6,0.3-0.7c0.1,0,0.5,0,0.8-0.4c0.4-0.4,0.2-0.9,0.2-1c0.1,0,0.5,0,0.7-0.4
			c0,0,0,0,0,0c0.3-0.3,0.2-0.8-0.1-1.1c-0.8-0.8-1.7-1.7-2.9-2.8c0.2,0,0.5,0.1,0.9,0.2c2,0.5,3.4,1.1,3.5,0.8c0.1-0.1,0-0.2,0-0.3
			c-0.1-0.2-0.3-0.3-0.4-0.4c-1.4-0.7-2.9-1.3-3.7-1.7c-0.4-0.2-1-0.5-1.8-0.6c-0.2,0-0.3,0-0.4,0c-0.4-0.5-0.8-1.1-1.2-1.6
			c-1,1.1-2.1,2.1-3.1,3.2c0.4,0.4,0.8,0.9,1.3,1.3c-0.1,0.2-0.1,0.4-0.1,0.7c0,0.8,0.6,1.4,0.8,1.7c0.8,0.9,1.9,2.5,3,3.9
			c0.2,0.2,0.5,0.3,0.7,0.1c0,0,0,0,0,0c0.4-0.3,0.5-0.7,0.5-0.8C94.4,164.5,94.9,164.6,95.3,164.3z"/>
		<path class="st25" d="M155.7,133.5c-0.1,0.1-0.3,0.2-0.4,0.2c-0.9-1.5-1.7-2.8-1.5-3c0.1-0.1,0.1-0.1,0.1-0.1c0.1,0,0.2,0,0.5,0.3
			c0.3,0.3,0.6,0.1,1.6,1.7C156,132.9,155.9,133.3,155.7,133.5z"/>
		<path class="st25" d="M158.4,131.6c-0.6-1.9-0.6-1.8-0.9-2.7c-0.1-0.3-0.5-1-0.2-1.4c0,0,0.1-0.1,0.2-0.1c0.2-0.1,0.8,0.8,2.1,3.8
			c-0.1,0.1-0.2,0.3-0.4,0.3C158.9,131.7,158.5,131.6,158.4,131.6z"/>
		<path class="st25" d="M158.1,132.3c-0.3,0.1-0.7,0-0.8-0.3c0.1,0.4-0.2,0.8-0.5,0.9c-0.3,0.1-0.6-0.1-0.7-0.4
			c-1.2-2.5-1.6-3.1-1.8-3.6c-0.1-0.4-0.1-0.6,0-0.7c0.1-0.1,0.2-0.2,0.2-0.2c0.2-0.1,0.9,0.6,2.7,3.9c-0.2-0.6-1.7-4.2-1.5-4.5
			c0.1-0.3,0.3-0.3,0.3-0.3c0.2,0,0.3,0.2,0.3,0.2c0.9,1.4,1.3,2.4,1.3,2.4c0.2,0.4,0.5,1.1,1,1.8
			C158.5,131.9,158.3,132.1,158.1,132.3z"/>
		<path class="st53" d="M95.6,154.3c-4.7-3.9-6.2-11.6-6.2-18.7c0-7.3,3.8-11.3,2.2-17.2c-0.5-0.6-1-1.3-1.5-1.9
			c-0.5,0.6-0.9,1.2-1.4,1.8c-2,2.9-3.5,5.7-4.7,8.3c0.6,4.1,0.7,8.8-0.2,13.9c-0.6,3.7-1.7,7-2.7,9.7c2.4,1.3,6.3,3.1,11.5,3.8
			C93.6,154.2,94.6,154.3,95.6,154.3z"/>
		<path class="st61" d="M106.1,161.3c0,0,0,0.1,0.1,0.4c0.1,0.3,0.2,0.7,0.3,1.2c0.1,0.5,0.3,1.1,0.4,1.9c0.2,0.7,0.3,1.5,0.5,2.4
			c0.2,0.9,0.4,1.9,0.6,2.9c0.2,1,0.4,2.1,0.7,3.2c0.2,1.1,0.5,2.3,0.7,3.5c0.2,1.2,0.4,2.4,0.7,3.6c0.2,1.2,0.4,2.4,0.6,3.6
			c0.2,1.2,0.4,2.3,0.6,3.5c0.2,1.1,0.3,2.2,0.5,3.2c0.1,0.5,0.2,1,0.2,1.5c0.1,0.5,0.1,1,0.2,1.4c0.1,0.9,0.2,1.7,0.3,2.5
			c0.1,0.7,0.2,1.4,0.2,1.9c0.1,0.5,0.1,0.9,0.1,1.2c0,0.3,0,0.4,0,0.4s0-0.1-0.1-0.4c-0.1-0.3-0.2-0.7-0.3-1.2
			c-0.1-0.5-0.3-1.1-0.4-1.9c-0.2-0.7-0.4-1.5-0.5-2.4c-0.1-0.4-0.2-0.9-0.3-1.4c-0.1-0.5-0.2-1-0.3-1.5c-0.2-1-0.4-2.1-0.7-3.2
			c-0.2-1.1-0.4-2.3-0.7-3.5c-0.2-1.2-0.4-2.4-0.7-3.6c-0.2-1.2-0.4-2.4-0.6-3.6c-0.2-1.2-0.4-2.3-0.6-3.5c-0.2-1.1-0.4-2.2-0.5-3.2
			c-0.2-1-0.3-2-0.4-2.9c-0.1-0.9-0.2-1.7-0.3-2.5c-0.1-0.7-0.2-1.4-0.2-1.9c-0.1-0.5-0.1-0.9-0.1-1.2
			C106.1,161.4,106.1,161.3,106.1,161.3z"/>
		<path class="st62" d="M101.3,118.7c0,0,0.1,0.1,0.3,0.2c0.2,0.2,0.4,0.4,0.7,0.7c0.3,0.3,0.7,0.7,1.1,1.1c0.4,0.4,0.9,0.9,1.3,1.5
			c0.5,0.6,0.9,1.2,1.3,2c0.4,0.7,0.8,1.6,1,2.5c0.1,0.5,0.2,1,0.1,1.5c0,0.1,0,0.3,0,0.4l0,0.2c0,0.1,0,0.1,0,0.2
			c0,0.1,0,0.1,0,0.2l-0.1,0.2l0,0.1l0,0l0,0.1l-0.1,0.2c-0.1,0.3-0.2,0.5-0.4,0.7c-0.1,0.2-0.3,0.4-0.5,0.6c-0.4,0.4-0.7,0.7-1,1
			l-0.1,0.1l-0.1,0.1l0,0.1l-0.2,0.3c-0.1,0.1-0.1,0.2-0.2,0.3c-0.1,0.1-0.1,0.2-0.2,0.3l-0.2,0.3c-0.1,0.1-0.1,0.2-0.2,0.3
			l-0.1,0.3c0,0.1-0.1,0.2-0.1,0.3c-0.1,0.2-0.2,0.4-0.2,0.6c-0.1,0.2-0.1,0.4-0.2,0.7c-0.1,0.4-0.2,0.9-0.2,1.3
			c-0.1,0.4-0.1,0.9-0.1,1.3c0,0.2,0,0.4,0,0.6c0,0.2,0,0.4,0,0.6c0,0.4,0,0.8,0,1.2c0,0.4,0,0.8,0,1.1c0,0.4,0.1,0.7,0.1,1
			c0,0.2,0,0.3,0,0.5c0,0.2,0,0.3,0,0.5c0,0.3,0.1,0.6,0.1,0.8c0,0.1,0,0.2,0,0.4c0,0.1,0,0.2,0,0.3c0.1,0.4,0.1,0.8,0.1,1
			c0,0.2,0,0.3,0,0.3s0-0.1-0.1-0.3c-0.1-0.2-0.2-0.5-0.3-1c0-0.1-0.1-0.2-0.1-0.3c0-0.1-0.1-0.2-0.1-0.4c-0.1-0.3-0.1-0.5-0.2-0.8
			c0-0.1-0.1-0.3-0.1-0.5c0-0.2-0.1-0.3-0.1-0.5c0-0.2-0.1-0.3-0.1-0.5c0-0.2-0.1-0.3-0.1-0.5c0-0.4-0.1-0.7-0.1-1.1
			c0-0.4-0.1-0.8-0.1-1.2c0-0.2,0-0.4,0-0.6c0-0.2,0-0.4,0-0.7c0-0.4,0-0.9,0.1-1.4c0-0.1,0-0.2,0-0.4c0-0.1,0-0.1,0-0.2l0-0.2
			c0-0.2,0.1-0.5,0.1-0.7c0.1-0.2,0.1-0.5,0.2-0.7c0.1-0.2,0.2-0.5,0.2-0.7c0-0.1,0.1-0.2,0.1-0.4l0.1-0.4c0.1-0.2,0.2-0.5,0.3-0.7
			c0.1-0.1,0.1-0.2,0.2-0.3c0.1-0.1,0.1-0.2,0.2-0.3l0.2-0.3l0.1-0.1l0.1-0.1l0.1-0.1c0.3-0.4,0.7-0.7,1-1.1
			c0.2-0.2,0.3-0.3,0.4-0.5c0.1-0.2,0.2-0.4,0.3-0.5l0.1-0.2l0,0l0,0c0,0,0,0,0,0l0,0l0-0.1l0-0.2l0-0.2c0-0.1,0-0.1,0-0.2l0-0.2
			c0-0.1,0-0.2,0-0.3c0-0.4,0-0.9-0.1-1.3c-0.1-0.8-0.5-1.6-0.8-2.4c-0.4-0.7-0.8-1.4-1.2-2c-0.4-0.6-0.8-1.1-1.1-1.6
			c-0.4-0.5-0.7-0.9-0.9-1.2c-0.3-0.3-0.5-0.6-0.6-0.8C101.4,118.8,101.3,118.7,101.3,118.7z"/>
		<path class="st20" d="M90.6,109.6l4.1,1.5L95,114c0,0-8.6-1.1-8.2-1.5C87.2,112.1,90.6,109.6,90.6,109.6z"/>
		<path class="st20" d="M94.7,111.1l1.6,2.7l2.3-3.2l-2.2-0.9L94.7,111.1z"/>
		<path class="st52" d="M76.1,141.9c3.5-4.9,6.3-8.8,8.1-11.3c5.5-7.6,8.1-10.8,7-13.9c-0.6-1.7-2.2-2.7-3.5-3.3c0,0-1.4-0.5-3-0.2
			c-4.9,0.8-8,5.9-10.7,10.9c-2.9,5.2-6.1,11.3-9.4,18.1c-1,2-0.2,4.3,1.6,5.4l19.8,11.6l4.2-6.8C85.6,149,80.9,145.5,76.1,141.9z"
			/>
		<path class="st20" d="M93.9,155.2c-1.2-0.9-2.4-1.8-3.6-2.7l-4.2,6.8l3,1.7L93.9,155.2z"/>
		<path class="st32" d="M88.9,159.9c0.5-0.2,0.8-0.8,0.5-1.3c-0.2-0.5-0.8-0.8-1.3-0.5c-0.5,0.2-0.8,0.8-0.5,1.3
			S88.4,160.1,88.9,159.9z"/>
		<path class="st63" d="M76.8,314.8l36.1-55.1c-2.8-1-5.5-1.9-8.3-2.9c-11.4,17.5-22.7,35-34.1,52.5
			C72.6,311.1,74.7,312.9,76.8,314.8z"/>
		<path class="st63" d="M99.7,258.7c-10.7,16.4-21.3,32.9-32,49.3l-3.8-3.4l30.7-47.2C96.3,257.9,98,258.3,99.7,258.7z"/>
		<path class="st63" d="M61.3,363.9h72.5c2.9,0,5.2-2.3,5.2-5.2v-14.2c0-2.9-2.3-5.2-5.2-5.2H61.3c-2.9,0-5.2,2.3-5.2,5.2v14.2
			C56.1,361.6,58.5,363.9,61.3,363.9z"/>
		<path class="st14" d="M123.2,377.7c6.7,0,12.2-5.4,12.2-12.2c0-6.7-5.4-12.2-12.2-12.2c-6.7,0-12.2,5.4-12.2,12.2
			C111,372.2,116.4,377.7,123.2,377.7z"/>
		<path class="st14" d="M71.6,377.7c6.7,0,12.2-5.4,12.2-12.2c0-6.7-5.4-12.2-12.2-12.2c-6.7,0-12.2,5.4-12.2,12.2
			C59.4,372.2,64.9,377.7,71.6,377.7z"/>
		<path class="st32" d="M95,340.9v-11.1l-25.2-25.2c-2-1.5-4.7-1.4-6.5,0.1c-2,1.7-2.3,5-0.5,7.3c3.7,6.7,7.4,13.5,11.1,20.2v8.3
			L95,340.9z"/>
		<path class="st32" d="M137.3,262.4H51.4c-3.2,0-5.9-2.6-5.9-5.9v-71.3h97.6v71.3C143.2,259.7,140.5,262.4,137.3,262.4z
			 M48.2,187.8v68.7c0,1.8,1.5,3.2,3.2,3.2h85.9c1.8,0,3.2-1.5,3.2-3.2v-68.7H48.2z"/>
		<path class="st32" d="M51.4,261.5h85.9c2.5,0,4.6-2,4.6-4.6v-10.5h-95v10.5C46.8,259.4,48.9,261.5,51.4,261.5z"/>
		<path class="st32" d="M122.8,186.5h-2.6v67.2h2.6V186.5z"/>
		<path class="st32" d="M95.9,186.5h-2.6v67.2h2.6V186.5z"/>
		<path class="st32" d="M69,186.5h-2.6v67.2H69V186.5z"/>
		<path class="st19" d="M123.2,372.4c3.8,0,6.9-3.1,6.9-6.9c0-3.8-3.1-6.9-6.9-6.9c-3.8,0-6.9,3.1-6.9,6.9
			C116.3,369.3,119.4,372.4,123.2,372.4z"/>
		<path class="st19" d="M71.6,372.4c3.8,0,6.9-3.1,6.9-6.9c0-3.8-3.1-6.9-6.9-6.9c-3.8,0-6.9,3.1-6.9,6.9
			C64.7,369.3,67.8,372.4,71.6,372.4z"/>
		<path class="st63" d="M74,333.2v7.3l21,0.4v-11.1l-9-9C87,326.2,84,331.3,74,333.2z"/>
		<path class="st32" d="M56.1,344.5v8.6c10.1-5.7,14.8-3.4,34.9-0.4c17.1,2.5,31.7-4.3,26.8-13.4H61.3
			C58.5,339.3,56.1,341.7,56.1,344.5z"/>
	</g>
</g>
</svg>
